<svg width="525" height="458" viewBox="0 0 525 458" fill="none" xmlns="http://www.w3.org/2000/svg">
<path opacity="0.19" d="M201.078 282.666L321.162 352.003L316.536 354.736L196.452 285.399L201.078 282.666ZM211.019 277.037L331.103 346.375L335.729 343.642L215.645 274.304L211.019 277.037ZM181.897 293.246L301.981 362.584L306.607 359.851L186.523 290.513L181.897 293.246ZM167.343 301.357L287.427 370.695L292.053 367.962L171.969 298.624L167.343 301.357ZM152.776 309.456L272.86 378.793L277.486 376.06L157.402 306.723L152.776 309.456ZM138.221 317.567L258.305 386.904L262.931 384.171L142.847 314.834L138.221 317.567ZM123.654 325.665L243.738 395.003L248.364 392.27L128.28 322.932L123.654 325.665ZM109.1 333.776L229.184 403.114L233.81 400.381L113.725 331.043L109.1 333.776ZM94.5325 341.874L214.617 411.212L219.242 408.479L99.1585 339.141L94.5325 341.874ZM79.978 349.985L200.062 419.323L204.688 416.59L84.6038 347.252L79.978 349.985ZM225.573 268.663L345.657 338.001L350.283 335.268L230.199 265.93L225.573 268.663ZM240.14 260.289L360.225 329.626L364.85 326.893L244.766 257.556L240.14 260.289ZM254.695 251.915L374.779 321.252L379.405 318.519L259.321 249.182L254.695 251.915ZM269.249 243.553L389.334 312.89L393.959 310.158L273.875 240.82L269.249 243.553ZM283.816 235.179L403.901 304.516L408.526 301.783L288.442 232.446L283.816 235.179ZM298.371 226.805L418.455 296.142L423.081 293.409L302.997 224.072L298.371 226.805ZM312.938 218.443L433.022 287.781L437.648 285.048L317.564 215.71L312.938 218.443ZM327.492 210.069L447.577 279.406L452.203 276.674L332.118 207.336L327.492 210.069ZM342.047 201.695L462.131 271.032L466.757 268.299L346.673 198.962L342.047 201.695ZM356.614 193.321L476.698 262.658L481.324 259.925L361.24 190.588L356.614 193.321ZM371.169 184.959L491.253 254.296L495.879 251.564L375.794 182.226L371.169 184.959ZM385.736 176.585L505.82 245.922L510.446 243.189L390.361 173.852L385.736 176.585ZM400.29 168.21L520.374 237.548L525 234.815L404.916 165.478L400.29 168.21Z" fill="url(#paint0_linear)"/>
<g opacity="0.5">
<path opacity="0.5" d="M434.382 124.867L434.503 124.852L418.879 105.439L418.94 84.6482L434.64 83.2843L450.218 102.651V102.257H450.339L442.808 92.8768L434.64 82.7388L418.637 84.1177H418.531L418.455 105.47L422.653 110.667L434.382 125.261V124.867Z" stroke="url(#paint1_linear)" stroke-miterlimit="10"/>
<path opacity="0.5" d="M466.326 100.878L450.324 102.257L450.415 102.394L450.309 102.273H450.203V102.667L450.142 123.518H450.218L450.278 102.758L450.218 123.518L450.49 123.503L450.566 123.594L450.642 123.685L450.703 102.803H450.687H450.703L466.342 101.454L481.98 120.897L481.92 141.688L466.22 143.037L466.235 143.067L466.22 143.037L450.642 123.685L450.566 123.594L450.49 123.503L450.218 123.518H450.172H450.142V123.549H450.218H450.142V123.624L450.218 123.715L450.142 123.624V123.549L434.488 124.867H434.382V125.261L434.503 125.413L434.382 125.261L434.321 146.204L450.278 166.04L450.384 166.177L466.402 164.798H466.508L466.569 143.552L482.223 142.203L482.329 142.188L482.39 120.836L466.326 100.878ZM450.521 124.064L450.506 124.034L450.521 124.064ZM450.384 165.616L434.745 146.174L434.806 125.413L434.533 125.428L434.806 125.382L450.506 124.034L450.521 124.064L466.145 143.491L466.084 164.283L450.384 165.616Z" stroke="url(#paint2_linear)" stroke-miterlimit="10"/>
</g>
<g opacity="0.5">
<path opacity="0.5" d="M231.295 415.706L231.417 415.691L215.793 396.279L215.854 375.488L231.553 374.124L247.131 393.49V393.096H247.253L239.721 383.716L231.553 373.578L215.55 374.957H215.444L215.369 396.309L219.566 401.507L231.295 416.1V415.706Z" stroke="url(#paint3_linear)" stroke-miterlimit="10"/>
<path opacity="0.5" d="M263.24 391.718L247.238 393.097L247.329 393.233L247.222 393.112H247.116V393.506L247.056 414.358H247.132L247.192 393.597L247.132 414.358L247.404 414.343L247.48 414.434L247.556 414.525L247.616 393.642H247.601H247.616L263.255 392.294L278.894 411.736L278.833 432.527L263.134 433.876L263.149 433.906L263.134 433.876L247.556 414.525L247.48 414.434L247.404 414.343L247.132 414.358H247.086H247.056V414.388H247.132H247.056V414.464L247.132 414.555L247.056 414.464V414.388L231.402 415.706H231.296V416.1L231.417 416.252L231.296 416.1L231.235 437.043L247.192 456.88L247.298 457.016L263.316 455.637H263.422L263.483 434.391L279.137 433.043L279.243 433.027L279.303 411.676L263.24 391.718ZM247.435 414.903L247.419 414.873L247.435 414.903ZM247.298 456.455L231.659 437.013L231.72 416.252L231.447 416.267L231.72 416.222L247.419 414.873L247.435 414.903L263.058 434.331L262.998 455.122L247.298 456.455Z" stroke="url(#paint4_linear)" stroke-miterlimit="10"/>
</g>
<g opacity="0.5">
<path opacity="0.5" d="M16.9268 134.895L17.0481 134.88L1.42435 115.468L1.48503 94.677L17.1845 93.3131L32.7628 112.68V112.286H32.8839L25.3525 102.906L17.1845 92.7676L1.18184 94.1465H1.07584L1 115.498L5.19767 120.696L16.9268 135.29V134.895Z" stroke="url(#paint5_linear)" stroke-miterlimit="10"/>
<path opacity="0.5" d="M48.8716 110.907L32.8689 112.286L32.9599 112.423L32.8537 112.301H32.7477V112.695L32.6871 133.547H32.7629L32.8234 112.786L32.7629 133.547L33.0356 133.532L33.1114 133.623L33.1873 133.714L33.2478 112.832H33.2326H33.2478L48.8867 111.483L64.5255 130.926L64.4648 151.717L48.7654 153.065L48.7805 153.096L48.7654 153.065L33.1873 133.714L33.1114 133.623L33.0356 133.532L32.7629 133.547H32.7174H32.6871V133.578H32.7629H32.6871V133.653L32.7629 133.744L32.6871 133.653V133.578L17.0331 134.896H16.9269V135.29L17.0483 135.441L16.9269 135.29L16.8665 156.233L32.8234 176.069L32.9296 176.206L48.9472 174.827H49.0534L49.1139 153.581L64.768 152.232L64.874 152.217L64.9347 130.865L48.8716 110.907ZM33.0659 134.093L33.0508 134.062L33.0659 134.093ZM32.9296 175.645L17.2906 156.202L17.3513 135.441L17.0786 135.457L17.3513 135.411L33.0508 134.062L33.0659 134.093L48.6897 153.52L48.629 174.311L32.9296 175.645Z" stroke="url(#paint6_linear)" stroke-miterlimit="10"/>
</g>
<path d="M281.509 215.058L281.422 246.887L247.887 266.381L247.975 234.552L281.509 215.058Z" fill="#FB7400"/>
<path d="M247.975 234.552L247.887 266.381L214.115 246.887L214.215 215.058L247.975 234.552Z" fill="#F45C00"/>
<path d="M281.51 215.058L247.975 234.552L214.215 215.058L247.75 195.564L281.51 215.058Z" fill="#FF8F00"/>
<path d="M259.634 215.798C253.14 219.571 242.61 219.571 236.078 215.798C232.794 213.905 231.152 211.41 231.164 208.928L231.152 215.297C231.139 217.779 232.781 220.273 236.066 222.166C242.597 225.94 253.128 225.94 259.621 222.166C262.843 220.299 264.46 217.841 264.46 215.384L264.473 209.016C264.473 211.473 262.856 213.93 259.634 215.798Z" fill="#F45C00"/>
<path d="M264.488 209.021C264.503 203.69 257.056 199.347 247.855 199.321C238.653 199.295 231.182 203.596 231.167 208.927C231.152 214.258 238.599 218.601 247.8 218.627C257.001 218.653 264.473 214.352 264.488 209.021Z" fill="#FFA200"/>
<path d="M281.51 215.058L281.422 246.887L247.887 266.381L247.975 234.539L281.51 215.058Z" fill="#FB7400"/>
<path d="M247.975 234.54L247.887 266.382L214.115 246.875L214.203 215.046L247.975 234.54Z" fill="#F45C00"/>
<path d="M281.51 215.058L247.975 234.539L214.203 215.046L247.75 195.564L281.51 215.058Z" fill="#FF8F00"/>
<path d="M264.774 208.301H231.365L231.001 214.958L239.35 223.658H256.049L264.41 214.958L264.774 208.301Z" fill="#F45C00"/>
<path d="M256.425 199.601H239.714L231.365 208.301L239.714 217.001H256.425L264.774 208.301L256.425 199.601Z" fill="#FF9C31"/>
<path d="M248.915 233.862L248.828 265.692L215.293 285.185L215.381 253.356L248.915 233.862Z" fill="#FB7400"/>
<path d="M215.381 253.356L215.293 285.185L181.521 265.692L181.621 233.862L215.381 253.356Z" fill="#F45C00"/>
<path d="M248.916 233.862L215.381 253.356L181.621 233.862L215.156 214.369L248.916 233.862Z" fill="#FF8F00"/>
<path d="M227.04 234.602C220.546 238.376 210.016 238.376 203.484 234.602C200.2 232.709 198.558 230.215 198.57 227.732L198.558 234.101C198.545 236.583 200.187 239.078 203.472 240.971C210.003 244.744 220.534 244.744 227.027 240.971C230.249 239.103 231.866 236.646 231.866 234.189L231.879 227.82C231.879 230.277 230.262 232.734 227.04 234.602Z" fill="#F45C00"/>
<path d="M231.894 227.825C231.909 222.494 224.462 218.151 215.261 218.125C206.059 218.099 198.588 222.4 198.573 227.731C198.558 233.062 206.005 237.405 215.206 237.431C224.407 237.457 231.879 233.156 231.894 227.825Z" fill="#FFA200"/>
<path d="M248.916 233.862L248.828 265.692L215.293 285.185L215.381 253.344L248.916 233.862Z" fill="#FB7400"/>
<path d="M215.381 253.344L215.293 285.186L181.521 265.679L181.609 233.85L215.381 253.344Z" fill="#F45C00"/>
<path d="M248.916 233.862L215.381 253.344L181.609 233.85L215.156 214.369L248.916 233.862Z" fill="#FF8F00"/>
<path d="M232.18 227.105H198.771L198.407 233.762L206.756 242.462H223.455L231.816 233.762L232.18 227.105Z" fill="#F45C00"/>
<path d="M223.831 218.405H207.12L198.771 227.105L207.12 235.806H223.831L232.18 227.105L223.831 218.405Z" fill="#FF9C31"/>
<path d="M314.103 233.862L314.016 265.692L280.481 285.185L280.569 253.356L314.103 233.862Z" fill="#FB7400"/>
<path d="M280.569 253.356L280.481 285.185L246.709 265.692L246.809 233.862L280.569 253.356Z" fill="#F45C00"/>
<path d="M314.104 233.862L280.569 253.356L246.809 233.862L280.344 214.369L314.104 233.862Z" fill="#FF8F00"/>
<path d="M292.228 234.602C285.734 238.376 275.204 238.376 268.672 234.602C265.388 232.709 263.746 230.215 263.758 227.732L263.746 234.101C263.733 236.583 265.375 239.078 268.66 240.971C275.191 244.744 285.722 244.744 292.215 240.971C295.437 239.103 297.054 236.646 297.054 234.189L297.067 227.82C297.067 230.277 295.45 232.734 292.228 234.602Z" fill="#F45C00"/>
<path d="M297.082 227.825C297.097 222.494 289.65 218.151 280.449 218.125C271.247 218.099 263.776 222.4 263.761 227.731C263.746 233.062 271.193 237.405 280.394 237.431C289.595 237.457 297.067 233.156 297.082 227.825Z" fill="#FFA200"/>
<path d="M314.104 233.862L314.016 265.692L280.481 285.185L280.569 253.344L314.104 233.862Z" fill="#FB7400"/>
<path d="M280.569 253.344L280.481 285.186L246.709 265.679L246.797 233.85L280.569 253.344Z" fill="#F45C00"/>
<path d="M314.104 233.862L280.569 253.344L246.797 233.85L280.344 214.369L314.104 233.862Z" fill="#FF8F00"/>
<path d="M297.368 227.105H263.959L263.595 233.762L271.944 242.462H288.643L297.004 233.762L297.368 227.105Z" fill="#F45C00"/>
<path d="M289.019 218.405H272.308L263.959 227.105L272.308 235.806H289.019L297.368 227.105L289.019 218.405Z" fill="#FF9C31"/>
<path d="M281.509 252.667L281.422 284.496L247.887 303.99L247.975 272.16L281.509 252.667Z" fill="#FB7400"/>
<path d="M247.975 272.16L247.887 303.99L214.115 284.496L214.215 252.667L247.975 272.16Z" fill="#F45C00"/>
<path d="M281.51 252.667L247.975 272.16L214.215 252.667L247.75 233.173L281.51 252.667Z" fill="#FF8F00"/>
<path d="M259.634 253.407C253.14 257.18 242.61 257.18 236.078 253.407C232.794 251.514 231.152 249.019 231.164 246.537L231.152 252.905C231.139 255.387 232.781 257.882 236.066 259.775C242.597 263.548 253.128 263.548 259.621 259.775C262.843 257.907 264.46 255.45 264.46 252.993L264.473 246.624C264.473 249.081 262.856 251.539 259.634 253.407Z" fill="#F45C00"/>
<path d="M264.488 246.63C264.503 241.298 257.056 236.956 247.855 236.93C238.653 236.903 231.182 241.204 231.167 246.535C231.152 251.866 238.599 256.209 247.8 256.235C257.001 256.261 264.473 251.961 264.488 246.63Z" fill="#FFA200"/>
<path d="M281.51 252.667L281.422 284.496L247.887 303.99L247.975 272.148L281.51 252.667Z" fill="#FB7400"/>
<path d="M247.975 272.148L247.887 303.99L214.115 284.484L214.203 252.654L247.975 272.148Z" fill="#F45C00"/>
<path d="M281.51 252.667L247.975 272.148L214.203 252.654L247.75 233.173L281.51 252.667Z" fill="#FF8F00"/>
<path d="M264.774 245.91H231.365L231.001 252.566L239.35 261.266H256.049L264.41 252.566L264.774 245.91Z" fill="#F45C00"/>
<path d="M256.425 237.209H239.714L231.365 245.91L239.714 254.61H256.425L264.774 245.91L256.425 237.209Z" fill="#FF9C31"/>
<path d="M346.698 252.667L346.61 284.496L313.076 303.99L313.163 272.16L346.698 252.667Z" fill="#FB7400"/>
<path d="M313.163 272.16L313.076 303.99L279.303 284.496L279.403 252.667L313.163 272.16Z" fill="#F45C00"/>
<path d="M346.698 252.667L313.164 272.16L279.404 252.667L312.938 233.173L346.698 252.667Z" fill="#FF8F00"/>
<path d="M324.822 253.407C318.328 257.18 307.798 257.18 301.267 253.407C297.982 251.514 296.34 249.019 296.352 246.537L296.34 252.905C296.327 255.387 297.97 257.882 301.254 259.775C307.785 263.548 318.316 263.548 324.81 259.775C328.031 257.907 329.649 255.45 329.649 252.993L329.661 246.624C329.661 249.081 328.044 251.539 324.822 253.407Z" fill="#F45C00"/>
<path d="M329.676 246.63C329.691 241.298 322.244 236.956 313.043 236.93C303.842 236.903 296.37 241.204 296.355 246.535C296.34 251.866 303.787 256.209 312.988 256.235C322.19 256.261 329.661 251.961 329.676 246.63Z" fill="#FFA200"/>
<path d="M346.698 252.667L346.61 284.496L313.076 303.99L313.163 272.148L346.698 252.667Z" fill="#FB7400"/>
<path d="M313.163 272.148L313.076 303.99L279.303 284.484L279.391 252.654L313.163 272.148Z" fill="#F45C00"/>
<path d="M346.698 252.667L313.164 272.148L279.391 252.654L312.938 233.173L346.698 252.667Z" fill="#FF8F00"/>
<path d="M329.962 245.91H296.553L296.189 252.566L304.539 261.266H321.237L329.598 252.566L329.962 245.91Z" fill="#F45C00"/>
<path d="M321.613 237.209H304.902L296.553 245.91L304.902 254.61H321.613L329.962 245.91L321.613 237.209Z" fill="#FF9C31"/>
<path d="M314.104 271.471L314.016 303.3L280.482 322.794L280.569 290.964L314.104 271.471Z" fill="#FB7400"/>
<path d="M280.569 290.964L280.482 322.794L246.709 303.3L246.809 271.471L280.569 290.964Z" fill="#F45C00"/>
<path d="M314.104 271.471L280.57 290.965L246.81 271.471L280.344 251.977L314.104 271.471Z" fill="#FF8F00"/>
<path d="M292.228 272.211C285.734 275.984 275.204 275.984 268.673 272.211C265.388 270.318 263.746 267.823 263.758 265.341L263.746 271.709C263.733 274.191 265.376 276.686 268.66 278.579C275.191 282.352 285.722 282.352 292.216 278.579C295.437 276.711 297.055 274.254 297.055 271.797L297.067 265.429C297.067 267.886 295.45 270.343 292.228 272.211Z" fill="#F45C00"/>
<path d="M297.082 265.434C297.097 260.103 289.65 255.76 280.449 255.734C271.248 255.708 263.776 260.008 263.761 265.339C263.746 270.67 271.193 275.013 280.394 275.039C289.596 275.065 297.067 270.765 297.082 265.434Z" fill="#FFA200"/>
<path d="M314.104 271.471L314.016 303.3L280.482 322.794L280.569 290.952L314.104 271.471Z" fill="#FB7400"/>
<path d="M280.569 290.952L280.482 322.794L246.709 303.288L246.797 271.458L280.569 290.952Z" fill="#F45C00"/>
<path d="M314.104 271.471L280.57 290.952L246.797 271.458L280.344 251.977L314.104 271.471Z" fill="#FF8F00"/>
<path d="M297.368 264.714H263.959L263.595 271.371L271.945 280.071H288.643L297.004 271.371L297.368 264.714Z" fill="#F45C00"/>
<path d="M289.019 256.014H272.308L263.959 264.714L272.308 273.414H289.019L297.368 264.714L289.019 256.014Z" fill="#FF9C31"/>
<path d="M379.292 271.471L379.204 303.3L345.67 322.794L345.757 290.964L379.292 271.471Z" fill="#FB7400"/>
<path d="M345.757 290.964L345.67 322.794L311.897 303.3L311.997 271.471L345.757 290.964Z" fill="#F45C00"/>
<path d="M379.292 271.471L345.757 290.965L311.998 271.471L345.532 251.977L379.292 271.471Z" fill="#FF8F00"/>
<path d="M357.416 272.211C350.922 275.984 340.392 275.984 333.861 272.211C330.576 270.318 328.934 267.823 328.946 265.341L328.934 271.709C328.921 274.191 330.564 276.686 333.848 278.579C340.379 282.352 350.91 282.352 357.404 278.579C360.625 276.711 362.243 274.254 362.243 271.797L362.255 265.429C362.255 267.886 360.638 270.343 357.416 272.211Z" fill="#F45C00"/>
<path d="M362.27 265.434C362.285 260.103 354.838 255.76 345.637 255.734C336.436 255.708 328.964 260.008 328.949 265.339C328.934 270.67 336.381 275.013 345.582 275.039C354.784 275.065 362.255 270.765 362.27 265.434Z" fill="#FFA200"/>
<path d="M379.292 271.471L379.204 303.3L345.67 322.794L345.757 290.952L379.292 271.471Z" fill="#FB7400"/>
<path d="M345.757 290.952L345.67 322.794L311.897 303.288L311.985 271.458L345.757 290.952Z" fill="#F45C00"/>
<path d="M379.292 271.471L345.758 290.952L311.985 271.458L345.532 251.977L379.292 271.471Z" fill="#FF8F00"/>
<path d="M362.556 264.714H329.147L328.783 271.371L337.133 280.071H353.831L362.192 271.371L362.556 264.714Z" fill="#F45C00"/>
<path d="M354.207 256.014H337.496L329.147 264.714L337.496 273.414H354.207L362.556 264.714L354.207 256.014Z" fill="#FF9C31"/>
<path d="M346.698 290.275L346.61 322.104L313.076 341.598L313.163 309.769L346.698 290.275Z" fill="#FB7400"/>
<path d="M313.163 309.769L313.076 341.598L279.303 322.104L279.403 290.275L313.163 309.769Z" fill="#F45C00"/>
<path d="M346.698 290.275L313.164 309.769L279.404 290.275L312.938 270.781L346.698 290.275Z" fill="#FF8F00"/>
<path d="M324.822 291.015C318.328 294.788 307.798 294.788 301.267 291.015C297.982 289.122 296.34 286.627 296.352 284.145L296.34 290.513C296.327 292.996 297.97 295.49 301.254 297.383C307.785 301.157 318.316 301.157 324.81 297.383C328.031 295.515 329.649 293.058 329.649 290.601L329.661 284.233C329.661 286.69 328.044 289.147 324.822 291.015Z" fill="#F45C00"/>
<path d="M329.676 284.238C329.691 278.907 322.244 274.564 313.043 274.538C303.842 274.512 296.37 278.812 296.355 284.144C296.34 289.475 303.787 293.818 312.988 293.844C322.19 293.87 329.661 289.569 329.676 284.238Z" fill="#FFA200"/>
<path d="M346.698 290.275L346.61 322.104L313.076 341.598L313.163 309.756L346.698 290.275Z" fill="#FB7400"/>
<path d="M313.163 309.756L313.076 341.598L279.303 322.092L279.391 290.263L313.163 309.756Z" fill="#F45C00"/>
<path d="M346.698 290.275L313.164 309.756L279.391 290.262L312.938 270.781L346.698 290.275Z" fill="#FF8F00"/>
<path d="M329.962 283.518H296.553L296.189 290.175L304.539 298.875H321.237L329.598 290.175L329.962 283.518Z" fill="#F45C00"/>
<path d="M321.613 274.818H304.902L296.553 283.518L304.902 292.218H321.613L329.962 283.518L321.613 274.818Z" fill="#FF9C31"/>
<path d="M282.763 179.957L282.675 211.786L249.141 231.28L249.229 199.451L282.763 179.957Z" fill="#FB7400"/>
<path d="M249.229 199.451L249.141 231.28L215.369 211.786L215.469 179.957L249.229 199.451Z" fill="#F45C00"/>
<path d="M282.763 179.957L249.229 199.451L215.469 179.957L249.003 160.463L282.763 179.957Z" fill="#FF8F00"/>
<path d="M260.888 180.697C254.394 184.47 243.863 184.47 237.332 180.697C234.048 178.804 232.405 176.309 232.418 173.827L232.405 180.196C232.393 182.678 234.035 185.172 237.32 187.065C243.851 190.839 254.381 190.839 260.875 187.065C264.097 185.197 265.714 182.74 265.714 180.283L265.727 173.915C265.727 176.372 264.109 178.829 260.888 180.697Z" fill="#F45C00"/>
<path d="M265.742 173.92C265.757 168.589 258.31 164.246 249.108 164.22C239.907 164.194 232.436 168.495 232.42 173.826C232.405 179.157 239.852 183.5 249.054 183.526C258.255 183.552 265.727 179.251 265.742 173.92Z" fill="#FFA200"/>
<path d="M282.763 179.957L282.675 211.786L249.141 231.28L249.229 199.438L282.763 179.957Z" fill="#FB7400"/>
<path d="M249.229 199.439L249.141 231.281L215.369 211.774L215.456 179.945L249.229 199.439Z" fill="#F45C00"/>
<path d="M282.763 179.957L249.229 199.438L215.457 179.945L249.003 160.463L282.763 179.957Z" fill="#FF8F00"/>
<path d="M266.027 173.2H232.618L232.255 179.857L240.604 188.557H257.302L265.664 179.857L266.027 173.2Z" fill="#F45C00"/>
<path d="M257.678 164.5H240.967L232.618 173.2L240.967 181.9H257.678L266.027 173.2L257.678 164.5Z" fill="#FF9C31"/>
<path d="M250.169 198.761L250.081 230.591L216.547 250.084L216.635 218.255L250.169 198.761Z" fill="#FB7400"/>
<path d="M216.635 218.255L216.547 250.084L182.775 230.591L182.875 198.761L216.635 218.255Z" fill="#F45C00"/>
<path d="M250.169 198.761L216.635 218.255L182.875 198.761L216.409 179.268L250.169 198.761Z" fill="#FF8F00"/>
<path d="M228.294 199.501C221.8 203.275 211.269 203.275 204.738 199.501C201.454 197.608 199.811 195.114 199.824 192.631L199.811 199C199.799 201.482 201.441 203.977 204.726 205.87C211.257 209.643 221.787 209.643 228.281 205.87C231.503 204.002 233.12 201.545 233.12 199.088L233.133 192.719C233.133 195.176 231.515 197.633 228.294 199.501Z" fill="#F45C00"/>
<path d="M233.148 192.724C233.163 187.393 225.716 183.05 216.514 183.024C207.313 182.998 199.842 187.299 199.826 192.63C199.811 197.961 207.258 202.304 216.46 202.33C225.661 202.356 233.133 198.055 233.148 192.724Z" fill="#FFA200"/>
<path d="M250.169 198.761L250.081 230.591L216.547 250.084L216.635 218.242L250.169 198.761Z" fill="#FB7400"/>
<path d="M216.635 218.243L216.547 250.085L182.775 230.578L182.862 198.749L216.635 218.243Z" fill="#F45C00"/>
<path d="M250.169 198.761L216.635 218.243L182.863 198.749L216.409 179.268L250.169 198.761Z" fill="#FF8F00"/>
<path d="M233.433 192.004H200.024L199.661 198.661L208.01 207.361H224.708L233.07 198.661L233.433 192.004Z" fill="#F45C00"/>
<path d="M225.084 183.304H208.373L200.024 192.004L208.373 200.704H225.084L233.433 192.004L225.084 183.304Z" fill="#FF9C31"/>
<path d="M315.357 198.761L315.269 230.591L281.735 250.084L281.823 218.255L315.357 198.761Z" fill="#FB7400"/>
<path d="M281.823 218.255L281.735 250.084L247.963 230.591L248.063 198.761L281.823 218.255Z" fill="#F45C00"/>
<path d="M315.357 198.761L281.823 218.255L248.063 198.761L281.597 179.268L315.357 198.761Z" fill="#FF8F00"/>
<path d="M293.482 199.501C286.988 203.275 276.457 203.275 269.926 199.501C266.642 197.608 264.999 195.114 265.012 192.631L264.999 199C264.987 201.482 266.629 203.977 269.914 205.87C276.445 209.643 286.975 209.643 293.469 205.87C296.691 204.002 298.308 201.545 298.308 199.088L298.321 192.719C298.321 195.176 296.703 197.633 293.482 199.501Z" fill="#F45C00"/>
<path d="M298.336 192.724C298.351 187.393 290.904 183.05 281.702 183.024C272.501 182.998 265.03 187.299 265.014 192.63C264.999 197.961 272.446 202.304 281.648 202.33C290.849 202.356 298.321 198.055 298.336 192.724Z" fill="#FFA200"/>
<path d="M315.357 198.761L315.269 230.591L281.735 250.084L281.823 218.242L315.357 198.761Z" fill="#FB7400"/>
<path d="M281.823 218.243L281.735 250.085L247.963 230.578L248.05 198.749L281.823 218.243Z" fill="#F45C00"/>
<path d="M315.357 198.761L281.823 218.243L248.051 198.749L281.597 179.268L315.357 198.761Z" fill="#FF8F00"/>
<path d="M298.621 192.004H265.212L264.849 198.661L273.198 207.361H289.896L298.258 198.661L298.621 192.004Z" fill="#F45C00"/>
<path d="M290.272 183.304H273.561L265.212 192.004L273.561 200.704H290.272L298.621 192.004L290.272 183.304Z" fill="#FF9C31"/>
<path d="M282.763 217.565L282.675 249.395L249.141 268.889L249.229 237.059L282.763 217.565Z" fill="#FB7400"/>
<path d="M249.229 237.059L249.141 268.889L215.369 249.395L215.469 217.565L249.229 237.059Z" fill="#F45C00"/>
<path d="M282.763 217.566L249.229 237.059L215.469 217.566L249.003 198.072L282.763 217.566Z" fill="#FF8F00"/>
<path d="M260.888 218.305C254.394 222.079 243.863 222.079 237.332 218.305C234.048 216.412 232.405 213.918 232.418 211.436L232.405 217.804C232.393 220.286 234.035 222.781 237.32 224.674C243.851 228.447 254.381 228.447 260.875 224.674C264.097 222.806 265.714 220.349 265.714 217.892L265.727 211.523C265.727 213.98 264.109 216.438 260.888 218.305Z" fill="#F45C00"/>
<path d="M265.742 211.528C265.757 206.197 258.31 201.855 249.108 201.828C239.907 201.802 232.436 206.103 232.42 211.434C232.405 216.765 239.852 221.108 249.054 221.134C258.255 221.16 265.727 216.86 265.742 211.528Z" fill="#FFA200"/>
<path d="M282.763 217.565L282.675 249.395L249.141 268.889L249.229 237.047L282.763 217.565Z" fill="#FB7400"/>
<path d="M249.229 237.047L249.141 268.889L215.369 249.383L215.456 217.553L249.229 237.047Z" fill="#F45C00"/>
<path d="M282.763 217.566L249.229 237.047L215.457 217.553L249.003 198.072L282.763 217.566Z" fill="#FF8F00"/>
<path d="M266.027 210.809H232.618L232.255 217.465L240.604 226.165H257.302L265.664 217.465L266.027 210.809Z" fill="#F45C00"/>
<path d="M257.678 202.108H240.967L232.618 210.809L240.967 219.509H257.678L266.027 210.809L257.678 202.108Z" fill="#FF9C31"/>
<path d="M347.951 217.565L347.864 249.395L314.329 268.889L314.417 237.059L347.951 217.565Z" fill="#FB7400"/>
<path d="M314.417 237.059L314.329 268.889L280.557 249.395L280.657 217.565L314.417 237.059Z" fill="#F45C00"/>
<path d="M347.951 217.566L314.417 237.059L280.657 217.566L314.192 198.072L347.951 217.566Z" fill="#FF8F00"/>
<path d="M326.076 218.305C319.582 222.079 309.052 222.079 302.52 218.305C299.236 216.412 297.594 213.918 297.606 211.436L297.594 217.804C297.581 220.286 299.223 222.781 302.508 224.674C309.039 228.447 319.57 228.447 326.063 224.674C329.285 222.806 330.902 220.349 330.902 217.892L330.915 211.523C330.915 213.98 329.298 216.438 326.076 218.305Z" fill="#F45C00"/>
<path d="M330.93 211.528C330.945 206.197 323.498 201.855 314.297 201.828C305.095 201.802 297.624 206.103 297.609 211.434C297.594 216.765 305.041 221.108 314.242 221.134C323.443 221.16 330.915 216.86 330.93 211.528Z" fill="#FFA200"/>
<path d="M347.951 217.565L347.864 249.395L314.329 268.889L314.417 237.047L347.951 217.565Z" fill="#FB7400"/>
<path d="M314.417 237.047L314.329 268.889L280.557 249.383L280.645 217.553L314.417 237.047Z" fill="#F45C00"/>
<path d="M347.952 217.566L314.417 237.047L280.645 217.553L314.192 198.072L347.952 217.566Z" fill="#FF8F00"/>
<path d="M331.216 210.809H297.807L297.443 217.465L305.792 226.165H322.49L330.852 217.465L331.216 210.809Z" fill="#F45C00"/>
<path d="M322.866 202.108H306.156L297.807 210.809L306.156 219.509H322.866L331.216 210.809L322.866 202.108Z" fill="#FF9C31"/>
<path d="M315.357 236.37L315.27 268.199L281.735 287.693L281.823 255.863L315.357 236.37Z" fill="#FB7400"/>
<path d="M281.823 255.863L281.735 287.693L247.963 268.199L248.063 236.37L281.823 255.863Z" fill="#F45C00"/>
<path d="M315.357 236.37L281.823 255.863L248.063 236.37L281.598 216.876L315.357 236.37Z" fill="#FF8F00"/>
<path d="M293.482 237.11C286.988 240.883 276.458 240.883 269.926 237.11C266.642 235.217 265 232.722 265.012 230.24L265 236.608C264.987 239.09 266.629 241.585 269.914 243.478C276.445 247.251 286.976 247.251 293.469 243.478C296.691 241.61 298.308 239.153 298.308 236.696L298.321 230.328C298.321 232.785 296.704 235.242 293.482 237.11Z" fill="#F45C00"/>
<path d="M298.336 230.333C298.351 225.002 290.904 220.659 281.703 220.633C272.501 220.607 265.03 224.907 265.015 230.238C265 235.569 272.447 239.912 281.648 239.938C290.849 239.964 298.321 235.664 298.336 230.333Z" fill="#FFA200"/>
<path d="M315.357 236.37L315.27 268.199L281.735 287.693L281.823 255.851L315.357 236.37Z" fill="#FB7400"/>
<path d="M281.823 255.851L281.735 287.693L247.963 268.187L248.051 236.357L281.823 255.851Z" fill="#F45C00"/>
<path d="M315.358 236.37L281.823 255.851L248.051 236.357L281.598 216.876L315.358 236.37Z" fill="#FF8F00"/>
<path d="M298.622 229.613H265.213L264.849 236.27L273.198 244.97H289.896L298.258 236.27L298.622 229.613Z" fill="#F45C00"/>
<path d="M290.272 220.913H273.562L265.213 229.613L273.562 238.313H290.272L298.622 229.613L290.272 220.913Z" fill="#FF9C31"/>
<path d="M380.545 236.37L380.458 268.199L346.923 287.693L347.011 255.863L380.545 236.37Z" fill="#FB7400"/>
<path d="M347.011 255.863L346.923 287.693L313.151 268.199L313.251 236.37L347.011 255.863Z" fill="#F45C00"/>
<path d="M380.545 236.37L347.011 255.863L313.251 236.37L346.786 216.876L380.545 236.37Z" fill="#FF8F00"/>
<path d="M358.67 237.11C352.176 240.883 341.646 240.883 335.114 237.11C331.83 235.217 330.188 232.722 330.2 230.24L330.188 236.608C330.175 239.09 331.817 241.585 335.102 243.478C341.633 247.251 352.164 247.251 358.657 243.478C361.879 241.61 363.496 239.153 363.496 236.696L363.509 230.328C363.509 232.785 361.892 235.242 358.67 237.11Z" fill="#F45C00"/>
<path d="M363.524 230.333C363.539 225.002 356.092 220.659 346.891 220.633C337.689 220.607 330.218 224.907 330.203 230.238C330.188 235.569 337.635 239.912 346.836 239.938C356.037 239.964 363.509 235.664 363.524 230.333Z" fill="#FFA200"/>
<path d="M380.545 236.37L380.458 268.199L346.923 287.693L347.011 255.851L380.545 236.37Z" fill="#FB7400"/>
<path d="M347.011 255.851L346.923 287.693L313.151 268.187L313.239 236.357L347.011 255.851Z" fill="#F45C00"/>
<path d="M380.546 236.37L347.011 255.851L313.239 236.357L346.786 216.876L380.546 236.37Z" fill="#FF8F00"/>
<path d="M363.81 229.613H330.401L330.037 236.27L338.386 244.97H355.084L363.446 236.27L363.81 229.613Z" fill="#F45C00"/>
<path d="M355.46 220.913H338.75L330.401 229.613L338.75 238.313H355.46L363.81 229.613L355.46 220.913Z" fill="#FF9C31"/>
<path d="M347.951 255.174L347.864 287.003L314.329 306.497L314.417 274.668L347.951 255.174Z" fill="#FB7400"/>
<path d="M314.417 274.668L314.329 306.497L280.557 287.003L280.657 255.174L314.417 274.668Z" fill="#F45C00"/>
<path d="M347.951 255.174L314.417 274.668L280.657 255.174L314.192 235.68L347.951 255.174Z" fill="#FF8F00"/>
<path d="M326.076 255.914C319.582 259.687 309.052 259.687 302.52 255.914C299.236 254.021 297.594 251.526 297.606 249.044L297.594 255.412C297.581 257.895 299.223 260.389 302.508 262.282C309.039 266.056 319.57 266.056 326.063 262.282C329.285 260.414 330.902 257.957 330.902 255.5L330.915 249.132C330.915 251.589 329.298 254.046 326.076 255.914Z" fill="#F45C00"/>
<path d="M330.93 249.137C330.945 243.806 323.498 239.463 314.297 239.437C305.095 239.411 297.624 243.711 297.609 249.042C297.594 254.374 305.041 258.716 314.242 258.743C323.443 258.769 330.915 254.468 330.93 249.137Z" fill="#FFA200"/>
<path d="M347.951 255.174L347.864 287.003L314.329 306.497L314.417 274.655L347.951 255.174Z" fill="#FB7400"/>
<path d="M314.417 274.655L314.329 306.497L280.557 286.991L280.645 255.162L314.417 274.655Z" fill="#F45C00"/>
<path d="M347.952 255.174L314.417 274.655L280.645 255.161L314.192 235.68L347.952 255.174Z" fill="#FF8F00"/>
<path d="M331.216 248.417H297.807L297.443 255.074L305.792 263.774H322.49L330.852 255.074L331.216 248.417Z" fill="#F45C00"/>
<path d="M322.866 239.717H306.156L297.807 248.417L306.156 257.117H322.866L331.216 248.417L322.866 239.717Z" fill="#FF9C31"/>
<path d="M285.27 144.855L285.183 176.685L251.648 196.179L251.736 164.349L285.27 144.855Z" fill="#FB7400"/>
<path d="M251.736 164.349L251.648 196.179L217.876 176.685L217.976 144.855L251.736 164.349Z" fill="#F45C00"/>
<path d="M285.271 144.856L251.736 164.349L217.976 144.856L251.511 125.362L285.271 144.856Z" fill="#FF8F00"/>
<path d="M263.395 145.595C256.901 149.369 246.371 149.369 239.839 145.595C236.555 143.703 234.913 141.208 234.925 138.726L234.913 145.094C234.9 147.576 236.542 150.071 239.827 151.964C246.358 155.737 256.889 155.737 263.382 151.964C266.604 150.096 268.221 147.639 268.221 145.182L268.234 138.813C268.234 141.27 266.617 143.728 263.395 145.595Z" fill="#F45C00"/>
<path d="M268.249 138.819C268.264 133.487 260.817 129.145 251.616 129.118C242.414 129.092 234.943 133.393 234.928 138.724C234.913 144.055 242.36 148.398 251.561 148.424C260.762 148.45 268.234 144.15 268.249 138.819Z" fill="#FFA200"/>
<path d="M285.27 144.855L285.183 176.685L251.648 196.179L251.736 164.337L285.27 144.855Z" fill="#FB7400"/>
<path d="M251.736 164.337L251.648 196.179L217.876 176.673L217.964 144.843L251.736 164.337Z" fill="#F45C00"/>
<path d="M285.271 144.856L251.736 164.337L217.964 144.843L251.511 125.362L285.271 144.856Z" fill="#FF8F00"/>
<path d="M268.535 138.099H235.126L234.762 144.755L243.111 153.455H259.81L268.171 144.755L268.535 138.099Z" fill="#F45C00"/>
<path d="M260.186 129.398H243.475L235.126 138.099L243.475 146.799H260.186L268.535 138.099L260.186 129.398Z" fill="#FF9C31"/>
<path d="M252.676 163.66L252.589 195.489L219.054 214.983L219.142 183.153L252.676 163.66Z" fill="#FB7400"/>
<path d="M219.142 183.153L219.054 214.983L185.282 195.489L185.382 163.66L219.142 183.153Z" fill="#F45C00"/>
<path d="M252.677 163.66L219.142 183.154L185.382 163.66L218.917 144.166L252.677 163.66Z" fill="#FF8F00"/>
<path d="M230.801 164.4C224.307 168.173 213.777 168.173 207.245 164.4C203.961 162.507 202.319 160.012 202.331 157.53L202.319 163.898C202.306 166.38 203.948 168.875 207.233 170.768C213.764 174.541 224.295 174.541 230.788 170.768C234.01 168.9 235.627 166.443 235.627 163.986L235.64 157.618C235.64 160.075 234.023 162.532 230.801 164.4Z" fill="#F45C00"/>
<path d="M235.655 157.623C235.67 152.292 228.223 147.949 219.022 147.923C209.82 147.897 202.349 152.197 202.334 157.528C202.319 162.859 209.766 167.202 218.967 167.228C228.168 167.254 235.64 162.954 235.655 157.623Z" fill="#FFA200"/>
<path d="M252.677 163.66L252.589 195.489L219.054 214.983L219.142 183.141L252.677 163.66Z" fill="#FB7400"/>
<path d="M219.142 183.141L219.054 214.983L185.282 195.477L185.37 163.647L219.142 183.141Z" fill="#F45C00"/>
<path d="M252.677 163.66L219.142 183.141L185.37 163.647L218.917 144.166L252.677 163.66Z" fill="#FF8F00"/>
<path d="M235.941 156.903H202.532L202.168 163.56L210.517 172.26H227.216L235.577 163.56L235.941 156.903Z" fill="#F45C00"/>
<path d="M227.592 148.203H210.881L202.532 156.903L210.881 165.603H227.592L235.941 156.903L227.592 148.203Z" fill="#FF9C31"/>
<path d="M317.864 163.66L317.777 195.489L284.242 214.983L284.33 183.153L317.864 163.66Z" fill="#FB7400"/>
<path d="M284.33 183.153L284.242 214.983L250.47 195.489L250.57 163.66L284.33 183.153Z" fill="#F45C00"/>
<path d="M317.865 163.66L284.33 183.154L250.57 163.66L284.105 144.166L317.865 163.66Z" fill="#FF8F00"/>
<path d="M295.989 164.4C289.495 168.173 278.965 168.173 272.433 164.4C269.149 162.507 267.507 160.012 267.519 157.53L267.507 163.898C267.494 166.38 269.136 168.875 272.421 170.768C278.952 174.541 289.483 174.541 295.976 170.768C299.198 168.9 300.815 166.443 300.815 163.986L300.828 157.618C300.828 160.075 299.211 162.532 295.989 164.4Z" fill="#F45C00"/>
<path d="M300.843 157.623C300.858 152.292 293.411 147.949 284.21 147.923C275.008 147.897 267.537 152.197 267.522 157.528C267.507 162.859 274.954 167.202 284.155 167.228C293.356 167.254 300.828 162.954 300.843 157.623Z" fill="#FFA200"/>
<path d="M317.864 163.66L317.777 195.489L284.242 214.983L284.33 183.141L317.864 163.66Z" fill="#FB7400"/>
<path d="M284.33 183.141L284.242 214.983L250.47 195.477L250.558 163.647L284.33 183.141Z" fill="#F45C00"/>
<path d="M317.865 163.66L284.33 183.141L250.558 163.647L284.105 144.166L317.865 163.66Z" fill="#FF8F00"/>
<path d="M301.129 156.903H267.72L267.356 163.56L275.705 172.26H292.404L300.765 163.56L301.129 156.903Z" fill="#F45C00"/>
<path d="M292.78 148.203H276.069L267.72 156.903L276.069 165.603H292.78L301.129 156.903L292.78 148.203Z" fill="#FF9C31"/>
<path d="M285.27 182.464L285.183 214.293L251.648 233.787L251.736 201.958L285.27 182.464Z" fill="#FB7400"/>
<path d="M251.736 201.958L251.648 233.787L217.876 214.293L217.976 182.464L251.736 201.958Z" fill="#F45C00"/>
<path d="M285.271 182.464L251.736 201.958L217.976 182.464L251.511 162.97L285.271 182.464Z" fill="#FF8F00"/>
<path d="M263.395 183.204C256.901 186.977 246.371 186.977 239.839 183.204C236.555 181.311 234.913 178.816 234.925 176.334L234.913 182.702C234.9 185.185 236.542 187.679 239.827 189.572C246.358 193.346 256.889 193.346 263.382 189.572C266.604 187.704 268.221 185.247 268.221 182.79L268.234 176.422C268.234 178.879 266.617 181.336 263.395 183.204Z" fill="#F45C00"/>
<path d="M268.249 176.427C268.264 171.096 260.817 166.753 251.616 166.727C242.414 166.701 234.943 171.001 234.928 176.332C234.913 181.664 242.36 186.006 251.561 186.033C260.762 186.059 268.234 181.758 268.249 176.427Z" fill="#FFA200"/>
<path d="M285.27 182.464L285.183 214.293L251.648 233.787L251.736 201.945L285.27 182.464Z" fill="#FB7400"/>
<path d="M251.736 201.945L251.648 233.787L217.876 214.281L217.964 182.452L251.736 201.945Z" fill="#F45C00"/>
<path d="M285.271 182.464L251.736 201.945L217.964 182.451L251.511 162.97L285.271 182.464Z" fill="#FF8F00"/>
<path d="M268.535 175.707H235.126L234.762 182.364L243.111 191.064H259.81L268.171 182.364L268.535 175.707Z" fill="#F45C00"/>
<path d="M260.186 167.007H243.475L235.126 175.707L243.475 184.407H260.186L268.535 175.707L260.186 167.007Z" fill="#FF9C31"/>
<path d="M286.524 112.261L286.436 144.091L252.902 163.584L252.99 131.755L286.524 112.261Z" fill="#FB7400"/>
<path d="M252.99 131.755L252.902 163.584L219.13 144.091L219.23 112.261L252.99 131.755Z" fill="#F45C00"/>
<path d="M286.524 112.261L252.99 131.755L219.23 112.261L252.764 92.7676L286.524 112.261Z" fill="#FF8F00"/>
<path d="M264.649 113.001C258.155 116.775 247.624 116.775 241.093 113.001C237.809 111.108 236.166 108.614 236.179 106.131L236.166 112.5C236.154 114.982 237.796 117.477 241.08 119.37C247.612 123.143 258.142 123.143 264.636 119.37C267.858 117.502 269.475 115.045 269.475 112.588L269.488 106.219C269.488 108.676 267.87 111.133 264.649 113.001Z" fill="#F45C00"/>
<path d="M269.503 106.224C269.518 100.893 262.071 96.5503 252.869 96.5243C243.668 96.4982 236.197 100.799 236.181 106.13C236.166 111.461 243.613 115.804 252.815 115.83C262.016 115.856 269.488 111.555 269.503 106.224Z" fill="#FFA200"/>
<path d="M286.524 112.261L286.436 144.091L252.902 163.584L252.99 131.742L286.524 112.261Z" fill="#FB7400"/>
<path d="M252.99 131.743L252.902 163.585L219.13 144.078L219.217 112.249L252.99 131.743Z" fill="#F45C00"/>
<path d="M286.524 112.261L252.99 131.743L219.218 112.249L252.764 92.7676L286.524 112.261Z" fill="#FF8F00"/>
<path d="M269.788 105.504H236.379L236.016 112.161L244.365 120.861H261.063L269.425 112.161L269.788 105.504Z" fill="#F45C00"/>
<path d="M261.439 96.8042H244.728L236.379 105.504L244.728 114.204H261.439L269.788 105.504L261.439 96.8042Z" fill="#FF9C31"/>
<path d="M319.118 131.065L319.03 162.895L285.496 182.389L285.584 150.559L319.118 131.065Z" fill="#FB7400"/>
<path d="M285.584 150.559L285.496 182.389L251.724 162.895L251.824 131.065L285.584 150.559Z" fill="#F45C00"/>
<path d="M319.118 131.066L285.584 150.559L251.824 131.066L285.358 111.572L319.118 131.066Z" fill="#FF8F00"/>
<path d="M297.243 131.805C290.749 135.579 280.218 135.579 273.687 131.805C270.403 129.912 268.76 127.418 268.773 124.936L268.76 131.304C268.748 133.786 270.39 136.281 273.674 138.174C280.206 141.947 290.736 141.947 297.23 138.174C300.452 136.306 302.069 133.849 302.069 131.392L302.082 125.023C302.082 127.48 300.464 129.938 297.243 131.805Z" fill="#F45C00"/>
<path d="M302.097 125.028C302.112 119.697 294.665 115.355 285.463 115.328C276.262 115.302 268.791 119.603 268.775 124.934C268.76 130.265 276.207 134.608 285.409 134.634C294.61 134.66 302.081 130.36 302.097 125.028Z" fill="#FFA200"/>
<path d="M319.118 131.065L319.03 162.895L285.496 182.389L285.584 150.547L319.118 131.065Z" fill="#FB7400"/>
<path d="M285.584 150.547L285.496 182.389L251.724 162.883L251.811 131.053L285.584 150.547Z" fill="#F45C00"/>
<path d="M319.118 131.066L285.584 150.547L251.812 131.053L285.358 111.572L319.118 131.066Z" fill="#FF8F00"/>
<path d="M302.382 124.309H268.973L268.61 130.965L276.959 139.665H293.657L302.019 130.965L302.382 124.309Z" fill="#F45C00"/>
<path d="M294.033 115.608H277.322L268.973 124.309L277.322 133.009H294.033L302.382 124.309L294.033 115.608Z" fill="#FF9C31"/>
<path d="M351.712 149.87L351.625 181.699L318.09 201.193L318.178 169.363L351.712 149.87Z" fill="#FB7400"/>
<path d="M318.178 169.363L318.09 201.193L284.318 181.699L284.418 149.87L318.178 169.363Z" fill="#F45C00"/>
<path d="M351.712 149.87L318.178 169.363L284.418 149.87L317.953 130.376L351.712 149.87Z" fill="#FF8F00"/>
<path d="M329.837 150.61C323.343 154.383 312.813 154.383 306.281 150.61C302.997 148.717 301.355 146.222 301.367 143.74L301.355 150.108C301.342 152.59 302.984 155.085 306.269 156.978C312.8 160.751 323.331 160.751 329.824 156.978C333.046 155.11 334.663 152.653 334.663 150.196L334.676 143.828C334.676 146.285 333.059 148.742 329.837 150.61Z" fill="#F45C00"/>
<path d="M334.691 143.833C334.706 138.502 327.259 134.159 318.058 134.133C308.856 134.107 301.385 138.407 301.37 143.738C301.355 149.069 308.802 153.412 318.003 153.438C327.204 153.464 334.676 149.164 334.691 143.833Z" fill="#FFA200"/>
<path d="M351.712 149.87L351.625 181.699L318.09 201.193L318.178 169.351L351.712 149.87Z" fill="#FB7400"/>
<path d="M318.178 169.351L318.09 201.193L284.318 181.687L284.406 149.857L318.178 169.351Z" fill="#F45C00"/>
<path d="M351.713 149.87L318.178 169.351L284.406 149.857L317.953 130.376L351.713 149.87Z" fill="#FF8F00"/>
<path d="M334.977 143.113H301.568L301.204 149.77L309.553 158.47H326.251L334.613 149.77L334.977 143.113Z" fill="#F45C00"/>
<path d="M326.627 134.413H309.917L301.568 143.113L309.917 151.813H326.627L334.977 143.113L326.627 134.413Z" fill="#FF9C31"/>
<path d="M384.306 168.674L384.219 200.503L350.684 219.997L350.772 188.168L384.306 168.674Z" fill="#FB7400"/>
<path d="M350.772 188.168L350.684 219.997L316.912 200.503L317.012 168.674L350.772 188.168Z" fill="#F45C00"/>
<path d="M384.306 168.674L350.772 188.168L317.012 168.674L350.547 149.18L384.306 168.674Z" fill="#FF8F00"/>
<path d="M362.431 169.414C355.937 173.187 345.407 173.187 338.875 169.414C335.591 167.521 333.949 165.026 333.961 162.544L333.949 168.912C333.936 171.395 335.578 173.889 338.863 175.782C345.394 179.556 355.925 179.556 362.418 175.782C365.64 173.914 367.257 171.457 367.257 169L367.27 162.632C367.27 165.089 365.653 167.546 362.431 169.414Z" fill="#F45C00"/>
<path d="M367.285 162.637C367.3 157.306 359.853 152.963 350.652 152.937C341.45 152.911 333.979 157.211 333.964 162.542C333.949 167.874 341.396 172.216 350.597 172.243C359.798 172.269 367.27 167.968 367.285 162.637Z" fill="#FFA200"/>
<path d="M384.306 168.674L384.219 200.503L350.684 219.997L350.772 188.155L384.306 168.674Z" fill="#FB7400"/>
<path d="M350.772 188.155L350.684 219.997L316.912 200.491L317 168.662L350.772 188.155Z" fill="#F45C00"/>
<path d="M384.307 168.674L350.772 188.155L317 168.661L350.547 149.18L384.307 168.674Z" fill="#FF8F00"/>
<path d="M367.571 161.917H334.162L333.798 168.574L342.147 177.274H358.845L367.207 168.574L367.571 161.917Z" fill="#F45C00"/>
<path d="M359.221 153.217H342.511L334.162 161.917L342.511 170.617H359.221L367.571 161.917L359.221 153.217Z" fill="#FF9C31"/>
<path d="M453.255 147.363L453.166 179.192L419.008 198.686L419.097 166.857L453.255 147.363Z" fill="#FB7400"/>
<path d="M419.097 166.857L419.008 198.686L384.607 179.192L384.709 147.363L419.097 166.857Z" fill="#F45C00"/>
<path d="M453.255 147.363L419.097 166.857L384.709 147.363L418.867 127.869L453.255 147.363Z" fill="#FF8F00"/>
<path d="M430.973 148.102C424.358 151.876 413.632 151.876 406.979 148.102C403.634 146.209 401.961 143.715 401.974 141.232L401.961 147.601C401.948 150.083 403.621 152.578 406.966 154.471C413.619 158.244 424.346 158.244 430.96 154.471C434.242 152.603 435.889 150.146 435.889 147.689L435.902 141.32C435.902 143.777 434.255 146.234 430.973 148.102Z" fill="#F45C00"/>
<path d="M435.917 141.326C435.933 135.995 428.347 131.652 418.975 131.626C409.602 131.6 401.991 135.9 401.976 141.231C401.961 146.563 409.546 150.905 418.919 150.931C428.291 150.958 435.902 146.657 435.917 141.326Z" fill="#FFA200"/>
<path d="M453.255 147.363L453.166 179.192L419.008 198.686L419.097 166.844L453.255 147.363Z" fill="#FB7400"/>
<path d="M419.097 166.844L419.008 198.686L384.607 179.18L384.697 147.351L419.097 166.844Z" fill="#F45C00"/>
<path d="M453.255 147.363L419.097 166.844L384.697 147.35L418.867 127.869L453.255 147.363Z" fill="#FF8F00"/>
<path d="M436.208 140.606H402.178L401.807 147.263L410.312 155.963H427.321L435.838 147.263L436.208 140.606Z" fill="#F45C00"/>
<path d="M427.704 131.906H410.682L402.178 140.606L410.682 149.306H427.704L436.208 140.606L427.704 131.906Z" fill="#FF9C31"/>
<path opacity="0.26" d="M407.709 328.519L405.497 324.687L232.919 424.325L235.132 428.157L407.709 328.519Z" fill="url(#paint7_linear)"/>
<path opacity="0.26" d="M182.058 273.36L179.845 269.528L76.9695 328.923L79.1821 332.756L182.058 273.36Z" fill="url(#paint8_linear)"/>
<path opacity="0.26" d="M221.292 114.258L219.741 111.572L98.7825 181.408L100.333 184.094L221.292 114.258Z" fill="url(#paint9_linear)"/>
<path opacity="0.26" d="M182.43 165.656L180.879 162.97L118.356 199.068L119.907 201.754L182.43 165.656Z" fill="url(#paint10_linear)"/>
<path opacity="0.27" d="M394.584 312.623C394.922 316.655 392.441 320.753 387.14 323.801L330.203 356.723C320.246 362.482 303.941 362.482 293.984 356.723L175.259 288.089C169.926 285.008 167.429 280.83 167.768 276.717C167.719 276.233 167.719 275.749 167.768 275.249C167.719 274.765 167.719 274.281 167.768 273.781C167.719 273.297 167.719 272.813 167.768 272.313C167.719 271.829 167.719 271.345 167.768 270.845C167.719 270.361 167.719 269.877 167.768 269.377C167.719 268.893 167.719 268.409 167.768 267.909C167.719 267.426 167.719 266.942 167.768 266.442C167.719 265.958 167.719 265.474 167.768 264.974C167.719 264.49 167.719 95.2016 167.768 94.7177C167.719 94.2338 167.719 93.75 167.768 93.2499C167.719 92.766 167.719 92.282 167.768 91.782C167.719 91.2981 167.719 90.8142 167.768 90.3142C167.719 89.8303 167.719 89.3464 167.768 88.8464C167.719 88.3624 167.719 87.8785 167.768 87.3784C167.719 86.8945 167.719 86.4107 167.768 85.9106C167.719 85.4267 167.719 84.9427 167.768 84.4427C167.719 83.9588 167.719 83.4749 167.768 82.9749C167.719 82.491 167.719 82.007 167.768 81.507C167.719 81.023 167.719 80.5392 167.768 80.0391C167.719 79.5552 167.719 79.0713 167.768 78.5712C167.719 78.0873 167.719 77.6034 167.768 77.1034C167.719 76.6195 167.719 76.1356 167.768 75.6356C167.719 75.1517 167.719 74.6677 167.768 74.1677C167.719 73.6838 167.719 73.1999 167.768 72.6998C167.719 72.2159 167.719 71.732 167.768 71.2319C167.719 70.748 167.719 70.2641 167.768 69.7641C167.719 69.2802 167.719 68.7962 167.768 68.2962C167.719 67.8123 167.719 67.3284 167.768 66.8284C167.719 66.3445 167.719 65.8606 167.768 65.3605C167.719 64.8766 167.719 64.3927 167.768 63.8926C167.719 63.4087 167.719 62.9249 167.768 62.4248C167.719 61.9409 167.719 61.4569 167.768 60.9569C167.719 60.473 167.719 59.9891 167.768 59.4891C167.719 59.0052 167.719 58.5212 167.768 58.0212C167.719 57.5372 167.719 57.0534 167.768 56.5533C167.719 56.0694 167.719 55.5855 167.768 55.0854C167.719 54.6015 167.719 54.1176 167.768 53.6176C167.719 53.1337 167.719 52.6498 167.768 52.1498C167.719 51.6659 167.719 51.1819 167.768 50.6819C167.719 50.1979 167.719 49.7141 167.768 49.214C167.429 45.1492 169.862 40.9875 175.066 37.8582L230.183 4.56515C240.027 -1.37083 256.235 -1.54826 266.208 4.21028L387.157 73.958C392.457 77.0066 394.938 81.1198 394.6 85.1363C394.648 85.6202 394.648 86.1042 394.6 86.6042C394.648 87.0881 394.648 87.572 394.6 88.072C394.648 88.5559 394.648 89.0399 394.6 89.5399C394.648 90.0239 394.648 90.5077 394.6 91.0078C394.648 91.4917 394.648 91.9756 394.6 92.4757C394.648 92.9596 394.648 93.4435 394.6 93.9435C394.648 94.4274 394.648 263.716 394.6 264.199C394.648 264.683 394.648 265.167 394.6 265.667C394.648 266.151 394.648 266.635 394.6 267.135C394.648 267.619 394.648 268.103 394.6 268.603C394.648 269.087 394.648 269.571 394.6 270.071C394.648 270.555 394.648 271.039 394.6 271.539C394.648 272.023 394.648 272.507 394.6 273.007C394.648 273.491 394.648 273.974 394.6 274.475C394.648 274.958 394.648 275.442 394.6 275.942C394.648 276.426 394.648 276.91 394.6 277.41C394.648 277.894 394.648 278.378 394.6 278.878C394.648 279.362 394.648 279.846 394.6 280.346C394.648 280.83 394.648 281.314 394.6 281.814C394.648 282.298 394.648 282.782 394.6 283.282C394.648 283.766 394.648 284.25 394.6 284.75C394.648 285.233 394.648 285.717 394.6 286.217C394.648 286.701 394.648 287.185 394.6 287.685C394.648 288.169 394.648 288.653 394.6 289.153C394.648 289.637 394.648 290.121 394.6 290.621C394.648 291.105 394.648 291.589 394.6 292.089C394.648 292.573 394.648 293.057 394.6 293.557C394.648 294.041 394.648 294.525 394.6 295.025C394.648 295.509 394.648 295.992 394.6 296.493C394.648 296.976 394.648 297.46 394.6 297.96C394.648 298.444 394.648 298.928 394.6 299.428C394.648 299.912 394.648 300.396 394.6 300.896C394.648 301.38 394.648 301.864 394.6 302.364C394.648 302.848 394.648 303.332 394.6 303.832C394.648 304.316 394.648 304.8 394.6 305.3C394.648 305.784 394.648 306.268 394.6 306.768C394.648 307.251 394.648 307.735 394.6 308.235C394.648 308.719 394.648 309.203 394.6 309.703C394.648 310.187 394.648 310.671 394.6 311.171C394.616 311.655 394.616 312.139 394.584 312.623Z" fill="url(#paint11_linear)"/>
<defs>
<linearGradient id="paint0_linear" x1="79.9819" y1="292.402" x2="524.999" y2="292.402" gradientUnits="userSpaceOnUse">
<stop stop-color="#FF8F00"/>
<stop offset="1" stop-color="white"/>
</linearGradient>
<linearGradient id="paint1_linear" x1="434.397" y1="125.773" x2="434.397" y2="82.2239" gradientUnits="userSpaceOnUse">
<stop stop-color="#E26700"/>
<stop offset="0.151042" stop-color="#FB7400"/>
<stop offset="0.3246" stop-color="#A9611E" stop-opacity="0.83"/>
<stop offset="0.520833" stop-color="#B86419" stop-opacity="0.980141"/>
<stop offset="0.661458" stop-color="#FB7400" stop-opacity="0.89"/>
<stop offset="1" stop-color="#FB7400"/>
</linearGradient>
<linearGradient id="paint2_linear" x1="458.356" y1="166.964" x2="458.356" y2="100.088" gradientUnits="userSpaceOnUse">
<stop stop-color="#E26700"/>
<stop offset="0.151042" stop-color="#FB7400"/>
<stop offset="0.3246" stop-color="#A9611E" stop-opacity="0.83"/>
<stop offset="0.520833" stop-color="#B86419" stop-opacity="0.980141"/>
<stop offset="0.661458" stop-color="#FB7400" stop-opacity="0.89"/>
<stop offset="1" stop-color="#FB7400"/>
</linearGradient>
<linearGradient id="paint3_linear" x1="231.311" y1="416.613" x2="231.311" y2="373.063" gradientUnits="userSpaceOnUse">
<stop stop-color="#E26700"/>
<stop offset="0.151042" stop-color="#FB7400"/>
<stop offset="0.3246" stop-color="#A9611E" stop-opacity="0.83"/>
<stop offset="0.520833" stop-color="#B86419" stop-opacity="0.980141"/>
<stop offset="0.661458" stop-color="#FB7400" stop-opacity="0.89"/>
<stop offset="1" stop-color="#FB7400"/>
</linearGradient>
<linearGradient id="paint4_linear" x1="255.27" y1="457.804" x2="255.27" y2="390.927" gradientUnits="userSpaceOnUse">
<stop stop-color="#E26700"/>
<stop offset="0.151042" stop-color="#FB7400"/>
<stop offset="0.3246" stop-color="#A9611E" stop-opacity="0.83"/>
<stop offset="0.520833" stop-color="#B86419" stop-opacity="0.980141"/>
<stop offset="0.661458" stop-color="#FB7400" stop-opacity="0.89"/>
<stop offset="1" stop-color="#FB7400"/>
</linearGradient>
<linearGradient id="paint5_linear" x1="16.9423" y1="135.802" x2="16.9423" y2="92.2528" gradientUnits="userSpaceOnUse">
<stop stop-color="#E26700"/>
<stop offset="0.151042" stop-color="#FB7400"/>
<stop offset="0.3246" stop-color="#A9611E" stop-opacity="0.83"/>
<stop offset="0.520833" stop-color="#B86419" stop-opacity="0.980141"/>
<stop offset="0.661458" stop-color="#FB7400" stop-opacity="0.89"/>
<stop offset="1" stop-color="#FB7400"/>
</linearGradient>
<linearGradient id="paint6_linear" x1="40.901" y1="176.993" x2="40.901" y2="110.117" gradientUnits="userSpaceOnUse">
<stop stop-color="#E26700"/>
<stop offset="0.151042" stop-color="#FB7400"/>
<stop offset="0.3246" stop-color="#A9611E" stop-opacity="0.83"/>
<stop offset="0.520833" stop-color="#B86419" stop-opacity="0.980141"/>
<stop offset="0.661458" stop-color="#FB7400" stop-opacity="0.89"/>
<stop offset="1" stop-color="#FB7400"/>
</linearGradient>
<linearGradient id="paint7_linear" x1="406.603" y1="326.603" x2="234.026" y2="426.241" gradientUnits="userSpaceOnUse">
<stop stop-color="#FFB96D" stop-opacity="0"/>
<stop offset="0.0989583" stop-color="#FF9C31"/>
<stop offset="0.322917" stop-color="#DF7613"/>
<stop offset="0.588542" stop-color="#FB7400"/>
<stop offset="0.953125" stop-color="#FF8F00" stop-opacity="0"/>
</linearGradient>
<linearGradient id="paint8_linear" x1="180.952" y1="271.444" x2="78.0758" y2="330.839" gradientUnits="userSpaceOnUse">
<stop stop-color="#FFB96D" stop-opacity="0"/>
<stop offset="0.0989583" stop-color="#FF9C31"/>
<stop offset="0.322917" stop-color="#DF7613"/>
<stop offset="0.588542" stop-color="#FB7400"/>
<stop offset="0.953125" stop-color="#FF8F00" stop-opacity="0"/>
</linearGradient>
<linearGradient id="paint9_linear" x1="220.517" y1="112.915" x2="99.5579" y2="182.751" gradientUnits="userSpaceOnUse">
<stop stop-color="#FFB96D" stop-opacity="0"/>
<stop offset="0.0989583" stop-color="#FF9C31"/>
<stop offset="0.322917" stop-color="#DF7613"/>
<stop offset="0.588542" stop-color="#FB7400"/>
<stop offset="0.953125" stop-color="#FF8F00" stop-opacity="0"/>
</linearGradient>
<linearGradient id="paint10_linear" x1="181.654" y1="164.313" x2="119.131" y2="200.411" gradientUnits="userSpaceOnUse">
<stop stop-color="#FFB96D" stop-opacity="0"/>
<stop offset="0.0989583" stop-color="#FF9C31"/>
<stop offset="0.322917" stop-color="#DF7613"/>
<stop offset="0.588542" stop-color="#FB7400"/>
<stop offset="0.953125" stop-color="#FF8F00" stop-opacity="0"/>
</linearGradient>
<linearGradient id="paint11_linear" x1="281.167" y1="0.315926" x2="281.167" y2="361.047" gradientUnits="userSpaceOnUse">
<stop offset="0.0729167" stop-color="#FB7400" stop-opacity="0"/>
<stop offset="1" stop-color="#FB7400"/>
</linearGradient>
</defs>
</svg>
