<svg width="597" height="457" viewBox="0 0 597 457" fill="none" xmlns="http://www.w3.org/2000/svg">
<path opacity="0.29" d="M364.816 390.363L358.845 394.15L365.596 390.877L469.361 457L366.396 390.385L403.742 366.747L474.805 412.012L499.838 396.161L532.541 416.997L500.619 395.647L529.633 377.293L562.335 398.129L529.633 376.287L499.838 395.155L467.468 374.533L517.536 342.851L479.644 318.7L493.166 310.143L596.911 376.245L493.146 309.116L478.844 318.165L437.4 291.767L398.064 316.667L350.299 286.226L382.474 265.861L359.977 251.528L374.279 242.479L327.548 212.702L372.699 242.479L359.177 251.036L252.583 183.116L233.519 195.181L203.92 176.313L145.52 213.279L120.252 197.171L161.969 170.773L116.955 142.107L146.75 123.24L96.5257 91.2368L145.169 123.24L116.155 141.594L66.7309 110.105L115.374 142.107L73.6577 168.505L118.672 197.171L94.4378 212.509L-1.78507e-05 152.333L93.638 213.001L74.5552 225.088L131.003 261.048L175.12 233.131L205.91 252.748L244.056 228.596L265.773 242.437L209.734 277.905L245.266 300.538L230.963 309.587L270.046 334.487L267.665 336.006L270.846 335L320.582 366.704L362.298 340.306L381.635 352.628L343.489 376.779L364.816 390.363ZM348.718 286.226L312.953 308.859L361.518 339.792L320.582 365.698L271.626 334.509L285.929 325.46L246.846 300.559L302.885 265.091L267.353 242.458L287.626 229.623L234.339 195.673L252.622 184.1L358.416 251.507L326.24 271.872L348.718 286.226ZM474.824 410.985L404.562 366.212L478.863 319.17L515.975 342.809L465.907 374.49L499.058 395.626L474.824 410.985ZM233.539 196.187L286.046 229.644L266.573 241.966L244.075 227.633L205.929 251.785L175.92 232.66L233.539 196.187ZM403.761 365.72L383.235 352.649L419 330.016L398.864 317.181L437.4 292.794L478.063 318.7L403.761 365.72ZM145.52 214.306L174.34 232.66L131.023 260.085L76.1551 225.13L94.4378 213.557L120.506 230.158L145.52 214.306ZM211.334 277.926L266.573 242.971L301.304 265.112L246.066 300.067L211.334 277.926ZM160.388 170.773L119.452 196.679L75.2381 168.505L116.174 142.599L160.388 170.773ZM362.318 339.3L314.553 308.859L349.518 286.718L397.284 317.16L362.318 339.3ZM203.92 177.319L232.739 195.673L175.12 232.147L146.301 213.793L203.92 177.319ZM365.616 389.871L345.089 376.801L382.435 353.162L402.961 366.233L365.616 389.871ZM380.913 265.861L349.518 285.734L327.801 271.894L359.196 252.02L380.913 265.861ZM119.452 197.706L144.72 213.814L120.487 229.152L95.2184 213.044L119.452 197.706ZM246.066 301.073L284.348 325.46L270.846 334.017L232.563 309.629L246.066 301.073Z" fill="url(#paint0_radial)"/>
<path opacity="0.29" d="M232.823 331.966L237.754 335.093L232.178 332.39L146.481 387L231.518 331.984L200.674 312.461L141.985 349.845L121.31 336.754L94.3014 353.962L120.665 336.33L96.7025 321.171L69.6943 338.379L96.7025 320.341L121.31 335.923L148.044 318.892L106.693 292.727L137.988 272.78L126.821 265.713L41.1392 320.305L126.837 264.865L138.649 272.338L172.876 250.537L205.363 271.102L244.812 245.961L218.239 229.141L236.819 217.304L225.007 209.831L263.602 185.238L226.313 209.831L237.48 216.898L325.514 160.804L341.258 170.768L365.704 155.185L413.936 185.715L434.804 172.411L400.351 150.609L437.527 126.935L412.92 111.352L454.399 84.9219L414.226 111.352L438.188 126.511L479.007 100.505L438.833 126.935L473.286 148.737L436.109 172.411L456.124 185.079L534.119 135.38L456.784 185.485L472.545 195.467L425.925 225.166L389.49 202.11L364.061 218.311L332.557 198.365L314.621 209.795L360.902 239.088L331.557 257.78L343.369 265.254L311.092 285.819L313.058 287.073L310.431 286.243L269.355 312.426L234.902 290.624L218.932 300.801L250.436 320.747L232.823 331.966ZM246.118 245.961L275.656 264.653L235.546 290.2L269.355 311.595L309.787 285.836L297.975 278.363L330.252 257.798L283.971 228.505L313.316 209.813L296.573 199.213L340.582 171.174L325.482 161.616L238.109 217.287L264.682 234.106L246.118 245.961ZM141.968 348.997L199.997 312.019L138.633 273.169L107.983 292.691L149.333 318.857L121.954 336.312L141.968 348.997ZM341.242 171.598L297.878 199.23L313.96 209.407L332.54 197.57L364.045 217.516L388.829 201.722L341.242 171.598ZM200.658 311.613L217.611 300.818L188.072 282.126L204.703 271.526L172.876 251.385L139.293 272.78L200.658 311.613ZM413.936 186.563L390.134 201.722L425.909 224.371L471.223 195.503L456.124 185.944L434.594 199.654L413.936 186.563ZM359.581 239.106L313.96 210.237L285.276 228.523L330.897 257.392L359.581 239.106ZM401.656 150.609L435.465 172.005L471.981 148.737L438.172 127.341L401.656 150.609ZM234.886 289.794L274.334 264.653L245.457 246.367L206.008 271.508L234.886 289.794ZM365.704 156.016L341.903 171.174L389.49 201.297L413.291 186.139L365.704 156.016ZM232.162 331.56L249.115 320.765L218.271 301.242L201.319 312.037L232.162 331.56ZM219.528 229.141L245.457 245.554L263.392 234.124L237.464 217.711L219.528 229.141ZM435.465 172.853L414.596 186.156L434.611 198.824L455.479 185.52L435.465 172.853ZM330.897 258.222L299.28 278.363L310.431 285.43L342.048 265.289L330.897 258.222Z" fill="url(#paint1_radial)"/>
<path d="M350.514 149.1V1L532 99.9799V247.553L350.514 149.1Z" stroke="#FFDFC4" stroke-width="0.1711" stroke-miterlimit="10"/>
<path d="M342.738 152.938V4.83838L524.224 103.818V251.392L342.738 152.938Z" fill="#FFF7F2"/>
<path d="M354.062 146.742V23.3481L512.921 109.994L511.478 232.92L354.062 146.742Z" fill="#FFCEB3"/>
<path d="M524.224 251.392L532 247.553V99.98L524.224 103.818V251.392Z" fill="#FFB575"/>
<path d="M524.224 103.818L532 99.9799L350.514 1L342.738 4.83845L524.224 103.818Z" fill="#FFB575"/>
<path d="M342.738 152.938L207 226.978L387.991 325.685L524.224 251.392L342.738 152.938Z" fill="#FBE1D2"/>
<path d="M207 226.978V234.616L387.991 333.81V325.685L207 226.978Z" fill="#F45C00"/>
<path d="M387.991 333.81L532 256.146V247.553L387.991 325.685V333.81Z" fill="#FFB575"/>
<path d="M281.686 198.589L442.154 283.872L436.957 286.697C434.234 288.139 429.82 288.139 427.18 286.697L278.592 205.643C275.869 204.201 275.869 201.804 278.592 200.304L281.686 198.589Z" fill="#FFB575"/>
<path d="M454.571 277.033L448.981 280.092L288.616 194.81L294.164 191.77L454.571 277.033Z" fill="#FFB575"/>
<path d="M465.833 270.895L460.243 273.935L299.878 188.652L305.406 185.613L465.833 270.895Z" fill="#FFB575"/>
<path d="M477.094 264.758L471.546 267.798L311.181 182.515L316.667 179.476L477.094 264.758Z" fill="#FFB575"/>
<path d="M488.397 258.601L482.808 261.66L322.38 176.377L327.991 173.318L488.397 258.601Z" fill="#FFB575"/>
<path d="M496.668 254.061L494.069 255.444L333.704 170.22L337.891 167.921C340.552 166.479 344.966 166.479 347.688 167.921L496.689 248.761C499.37 250.223 499.37 252.619 496.668 254.061Z" fill="#FFB575"/>
<path opacity="0.23" d="M368.562 31.7461L406.616 175.598L511.416 233.486L512.921 109.995L368.562 31.7461Z" fill="#F7F7F7"/>
<path d="M367.406 263.394C373.408 266.668 373.429 271.987 367.468 275.26L350.452 284.612C344.491 287.886 334.756 287.886 328.774 284.612L284.016 260.199C278.014 256.925 277.994 251.606 283.954 248.333L300.971 238.98C306.932 235.707 316.667 235.707 322.648 238.98L367.406 263.394ZM349.441 284.047L366.457 274.695C371.861 271.733 371.82 266.901 366.396 263.94L321.638 239.526C316.213 236.564 307.385 236.564 301.981 239.526L284.965 248.878C279.561 251.84 279.602 256.672 285.027 259.634L329.785 284.047C335.209 287.009 344.037 287.009 349.441 284.047Z" stroke="#FFB575" stroke-miterlimit="10"/>
<path d="M142.76 209.55L142.69 234.94L115.94 250.49L116.01 225.1L142.76 209.55Z" fill="#FB7400"/>
<path d="M116.01 225.1L115.94 250.49L89 234.94L89.08 209.55L116.01 225.1Z" fill="#F45C00"/>
<path d="M142.76 209.55L116.01 225.1L89.0801 209.55L115.83 194L142.76 209.55Z" fill="#FF8F00"/>
<path d="M125.31 210.14C120.13 213.15 111.73 213.15 106.52 210.14C103.9 208.63 102.59 206.64 102.6 204.66L102.59 209.74C102.58 211.72 103.89 213.71 106.51 215.22C111.72 218.23 120.12 218.23 125.3 215.22C127.87 213.73 129.16 211.77 129.16 209.81L129.17 204.73C129.17 206.69 127.88 208.65 125.31 210.14Z" fill="#F45C00"/>
<path d="M129.182 204.734C129.194 200.482 123.254 197.017 115.914 196.997C108.574 196.976 102.614 200.406 102.602 204.659C102.59 208.911 108.53 212.376 115.87 212.397C123.21 212.417 129.17 208.987 129.182 204.734Z" fill="#FFA200"/>
<path d="M142.76 209.55L142.69 234.94L115.94 250.49L116.01 225.09L142.76 209.55Z" fill="#FB7400"/>
<path d="M116.01 225.09L115.94 250.49L89 234.93L89.07 209.54L116.01 225.09Z" fill="#F45C00"/>
<path d="M142.76 209.55L116.01 225.09L89.0698 209.54L115.83 194L142.76 209.55Z" fill="#FF8F00"/>
<path d="M129.41 204.16H102.76L102.47 209.47L109.13 216.41H122.45L129.12 209.47L129.41 204.16Z" fill="#F45C00"/>
<path d="M122.75 197.22H109.42L102.76 204.16L109.42 211.1H122.75L129.41 204.16L122.75 197.22Z" fill="#FF9C31"/>
<path d="M168.76 224.55L168.69 249.94L141.94 265.49L142.01 240.1L168.76 224.55Z" fill="#FB7400"/>
<path d="M142.01 240.1L141.94 265.49L115 249.94L115.08 224.55L142.01 240.1Z" fill="#F45C00"/>
<path d="M168.76 224.55L142.01 240.1L115.08 224.55L141.83 209L168.76 224.55Z" fill="#FF8F00"/>
<path d="M151.31 225.14C146.13 228.15 137.73 228.15 132.52 225.14C129.9 223.63 128.59 221.64 128.6 219.66L128.59 224.74C128.58 226.72 129.89 228.71 132.51 230.22C137.72 233.23 146.12 233.23 151.3 230.22C153.87 228.73 155.16 226.77 155.16 224.81L155.17 219.73C155.17 221.69 153.88 223.65 151.31 225.14Z" fill="#F45C00"/>
<path d="M155.182 219.734C155.194 215.482 149.254 212.017 141.914 211.997C134.574 211.976 128.614 215.406 128.602 219.659C128.59 223.911 134.53 227.376 141.87 227.397C149.21 227.417 155.17 223.987 155.182 219.734Z" fill="#FFA200"/>
<path d="M168.76 224.55L168.69 249.94L141.94 265.49L142.01 240.09L168.76 224.55Z" fill="#FB7400"/>
<path d="M142.01 240.09L141.94 265.49L115 249.93L115.07 224.54L142.01 240.09Z" fill="#F45C00"/>
<path d="M168.76 224.55L142.01 240.09L115.07 224.54L141.83 209L168.76 224.55Z" fill="#FF8F00"/>
<path d="M155.41 219.16H128.76L128.47 224.47L135.13 231.41H148.45L155.12 224.47L155.41 219.16Z" fill="#F45C00"/>
<path d="M148.75 212.22H135.42L128.76 219.16L135.42 226.1H148.75L155.41 219.16L148.75 212.22Z" fill="#FF9C31"/>
<path opacity="0.45" d="M360.036 184.373L415.67 216.73L476.711 183.501L421.072 151.144L360.036 184.373Z" fill="url(#paint2_linear)"/>
<path opacity="0.17" d="M360.061 104.234L360.264 184.373L421.3 151.144L421.102 71L360.061 104.234Z" fill="url(#paint3_linear)"/>
<path d="M419.76 143.55L419.69 168.94L392.94 184.49L393.01 159.1L419.76 143.55Z" fill="#FB7400"/>
<path d="M393.01 159.1L392.94 184.49L366 168.94L366.08 143.55L393.01 159.1Z" fill="#F45C00"/>
<path d="M419.76 143.55L393.01 159.1L366.08 143.55L392.83 128L419.76 143.55Z" fill="#FF8F00"/>
<path d="M402.31 144.14C397.13 147.15 388.73 147.15 383.52 144.14C380.9 142.63 379.59 140.64 379.6 138.66L379.59 143.74C379.58 145.72 380.89 147.71 383.51 149.22C388.72 152.23 397.12 152.23 402.3 149.22C404.87 147.73 406.16 145.77 406.16 143.81L406.17 138.73C406.17 140.69 404.88 142.65 402.31 144.14Z" fill="#F45C00"/>
<path d="M406.182 138.734C406.194 134.482 400.254 131.017 392.914 130.997C385.574 130.976 379.614 134.406 379.602 138.659C379.59 142.911 385.53 146.376 392.87 146.397C400.21 146.417 406.17 142.987 406.182 138.734Z" fill="#FFA200"/>
<path d="M419.76 143.55L419.69 168.94L392.94 184.49L393.01 159.09L419.76 143.55Z" fill="#FB7400"/>
<path d="M393.01 159.09L392.94 184.49L366 168.93L366.07 143.54L393.01 159.09Z" fill="#F45C00"/>
<path d="M419.76 143.55L393.01 159.09L366.07 143.54L392.83 128L419.76 143.55Z" fill="#FF8F00"/>
<path d="M406.41 138.16H379.76L379.47 143.47L386.13 150.41H399.45L406.12 143.47L406.41 138.16Z" fill="#F45C00"/>
<path d="M399.75 131.22H386.42L379.76 138.16L386.42 145.1H399.75L406.41 138.16L399.75 131.22Z" fill="#FF9C31"/>
<path d="M445.76 158.55L445.69 183.94L418.94 199.49L419.01 174.1L445.76 158.55Z" fill="#FB7400"/>
<path d="M419.01 174.1L418.94 199.49L392 183.94L392.08 158.55L419.01 174.1Z" fill="#F45C00"/>
<path d="M445.76 158.55L419.01 174.1L392.08 158.55L418.83 143L445.76 158.55Z" fill="#FF8F00"/>
<path d="M428.31 159.14C423.13 162.15 414.73 162.15 409.52 159.14C406.9 157.63 405.59 155.64 405.6 153.66L405.59 158.74C405.58 160.72 406.89 162.71 409.51 164.22C414.72 167.23 423.12 167.23 428.3 164.22C430.87 162.73 432.16 160.77 432.16 158.81L432.17 153.73C432.17 155.69 430.88 157.65 428.31 159.14Z" fill="#F45C00"/>
<path d="M432.182 153.734C432.194 149.482 426.254 146.017 418.914 145.997C411.574 145.976 405.614 149.406 405.602 153.659C405.59 157.911 411.53 161.376 418.87 161.397C426.21 161.417 432.17 157.987 432.182 153.734Z" fill="#FFA200"/>
<path d="M445.76 158.55L445.69 183.94L418.94 199.49L419.01 174.09L445.76 158.55Z" fill="#FB7400"/>
<path d="M419.01 174.09L418.94 199.49L392 183.93L392.07 158.54L419.01 174.09Z" fill="#F45C00"/>
<path d="M445.76 158.55L419.01 174.09L392.07 158.54L418.83 143L445.76 158.55Z" fill="#FF8F00"/>
<path d="M432.41 153.16H405.76L405.47 158.47L412.13 165.41H425.45L432.12 158.47L432.41 153.16Z" fill="#F45C00"/>
<path d="M425.75 146.22H412.42L405.76 153.16L412.42 160.1H425.75L432.41 153.16L425.75 146.22Z" fill="#FF9C31"/>
<path d="M445.76 102.55L445.69 127.94L418.94 143.49L419.01 118.1L445.76 102.55Z" fill="#FB7400"/>
<path d="M419.01 118.1L418.94 143.49L392 127.94L392.08 102.55L419.01 118.1Z" fill="#F45C00"/>
<path d="M445.76 102.55L419.01 118.1L392.08 102.55L418.83 87L445.76 102.55Z" fill="#FF8F00"/>
<path d="M428.31 103.14C423.13 106.15 414.73 106.15 409.52 103.14C406.9 101.63 405.59 99.6402 405.6 97.6602L405.59 102.74C405.58 104.72 406.89 106.71 409.51 108.22C414.72 111.23 423.12 111.23 428.3 108.22C430.87 106.73 432.16 104.77 432.16 102.81L432.17 97.7302C432.17 99.6902 430.88 101.65 428.31 103.14Z" fill="#F45C00"/>
<path d="M432.182 97.7342C432.194 93.4816 426.254 90.0174 418.914 89.9966C411.574 89.9758 405.614 93.4063 405.602 97.6589C405.59 101.911 411.53 105.376 418.87 105.397C426.21 105.417 432.17 101.987 432.182 97.7342Z" fill="#FFA200"/>
<path d="M445.76 102.55L445.69 127.94L418.94 143.49L419.01 118.09L445.76 102.55Z" fill="#FB7400"/>
<path d="M419.01 118.09L418.94 143.49L392 127.93L392.07 102.54L419.01 118.09Z" fill="#F45C00"/>
<path d="M445.76 102.55L419.01 118.09L392.07 102.54L418.83 87L445.76 102.55Z" fill="#FF8F00"/>
<path d="M432.41 97.1602H405.76L405.47 102.47L412.13 109.41H425.45L432.12 102.47L432.41 97.1602Z" fill="#F45C00"/>
<path d="M425.75 90.2197H412.42L405.76 97.1597L412.42 104.1H425.75L432.41 97.1597L425.75 90.2197Z" fill="#FF9C31"/>
<g opacity="0.45">
<path opacity="0.45" d="M360.061 104.234L360.264 184.373L415.898 216.73L415.7 136.591L360.061 104.234Z" fill="url(#paint4_linear)"/>
</g>
<g opacity="0.45">
<path opacity="0.45" d="M415.7 136.591L415.898 216.73L476.934 183.501L476.736 103.357L415.7 136.591Z" fill="url(#paint5_linear)"/>
</g>
<g opacity="0.45">
<path opacity="0.45" d="M360.062 104.234L415.701 136.591L476.737 103.357L421.103 71L360.062 104.234Z" fill="url(#paint6_linear)"/>
</g>
<path opacity="0.66" d="M476.736 103.357L415.7 136.591" stroke="url(#paint7_linear)" stroke-miterlimit="10"/>
<path opacity="0.66" d="M415.862 137.236L415.959 211.902" stroke="url(#paint8_linear)" stroke-miterlimit="10"/>
<path opacity="0.38" d="M360 108.48L360.096 183.151" stroke="url(#paint9_linear)" stroke-miterlimit="10"/>
<path opacity="0.66" d="M476.904 102.885L477 177.556" stroke="url(#paint10_linear)" stroke-miterlimit="10"/>
<path d="M293.433 335.027V344L201 291.061V282.088L293.433 335.027Z" fill="url(#paint11_linear)"/>
<path d="M293.375 335.027V344L322.112 326.917V318.008L293.375 335.027Z" fill="#FFE5B4"/>
<path d="M322.113 318.008L293.375 335.027L201 282.088L229.847 265L322.113 318.008Z" fill="url(#paint12_linear)"/>
<path d="M293.068 342.569L294.708 334.685L320.549 319.335L293.456 333.979L203.126 283.693L292.414 335.52L293.068 342.569Z" fill="url(#paint13_radial)"/>
<path d="M271.433 370.027V379L179 326.061V317.088L271.433 370.027Z" fill="url(#paint14_linear)"/>
<path d="M271.375 370.027V379L300.112 361.917V353.008L271.375 370.027Z" fill="#FFE5B4"/>
<path d="M300.113 353.008L271.375 370.027L179 317.088L207.847 300L300.113 353.008Z" fill="url(#paint15_linear)"/>
<path d="M271.068 377.569L272.708 369.685L298.549 354.335L271.456 368.979L181.126 318.693L270.414 370.52L271.068 377.569Z" fill="url(#paint16_radial)"/>
<defs>
<radialGradient id="paint0_radial" cx="0" cy="0" r="1" gradientUnits="userSpaceOnUse" gradientTransform="translate(298.462 274.117) rotate(180) scale(241.769 265.066)">
<stop stop-color="white"/>
<stop offset="0.395833" stop-color="#F45C00"/>
</radialGradient>
<radialGradient id="paint1_radial" cx="0" cy="0" r="1" gradientUnits="userSpaceOnUse" gradientTransform="translate(287.624 235.96) scale(199.674 218.914)">
<stop stop-color="white"/>
<stop offset="0.395833" stop-color="#F45C00"/>
</radialGradient>
<linearGradient id="paint2_linear" x1="472.078" y1="203.306" x2="376.888" y2="168.98" gradientUnits="userSpaceOnUse">
<stop stop-color="#FF5C00"/>
<stop offset="1" stop-color="#FF5C00"/>
</linearGradient>
<linearGradient id="paint3_linear" x1="430.179" y1="107.177" x2="328.117" y2="160.176" gradientUnits="userSpaceOnUse">
<stop stop-color="#FFA800"/>
<stop offset="1" stop-color="white" stop-opacity="0"/>
</linearGradient>
<linearGradient id="paint4_linear" x1="427.543" y1="139.32" x2="357.343" y2="176.87" gradientUnits="userSpaceOnUse">
<stop stop-color="#FF9900"/>
<stop offset="1" stop-color="#FE9800" stop-opacity="0"/>
</linearGradient>
<linearGradient id="paint5_linear" x1="485.813" y1="139.534" x2="383.752" y2="192.533" gradientUnits="userSpaceOnUse">
<stop stop-color="#9F1F03"/>
<stop offset="1" stop-color="white" stop-opacity="0"/>
</linearGradient>
<linearGradient id="paint6_linear" x1="472.107" y1="123.164" x2="376.917" y2="88.8375" gradientUnits="userSpaceOnUse">
<stop stop-color="#E85300"/>
<stop offset="1" stop-color="#FF5C00" stop-opacity="0.31"/>
</linearGradient>
<linearGradient id="paint7_linear" x1="476.858" y1="103.585" x2="415.575" y2="136.366" gradientUnits="userSpaceOnUse">
<stop stop-color="white" stop-opacity="0"/>
<stop offset="0.1809" stop-color="white"/>
<stop offset="0.799" stop-color="white"/>
<stop offset="1" stop-color="white" stop-opacity="0"/>
</linearGradient>
<linearGradient id="paint8_linear" x1="431.6" y1="166.179" x2="400.221" y2="182.969" gradientUnits="userSpaceOnUse">
<stop stop-color="white" stop-opacity="0"/>
<stop offset="0.1809" stop-color="white"/>
<stop offset="0.799" stop-color="white"/>
<stop offset="1" stop-color="white" stop-opacity="0"/>
</linearGradient>
<linearGradient id="paint9_linear" x1="375.739" y1="137.426" x2="344.358" y2="154.217" gradientUnits="userSpaceOnUse">
<stop stop-color="white" stop-opacity="0"/>
<stop offset="0.1809" stop-color="white"/>
<stop offset="0.799" stop-color="white"/>
<stop offset="1" stop-color="white" stop-opacity="0"/>
</linearGradient>
<linearGradient id="paint10_linear" x1="492.643" y1="131.83" x2="461.261" y2="148.622" gradientUnits="userSpaceOnUse">
<stop stop-color="white" stop-opacity="0"/>
<stop offset="0.0001" stop-color="white" stop-opacity="0"/>
<stop offset="0.1809" stop-color="#F8A27D"/>
<stop offset="0.799" stop-color="white"/>
<stop offset="1" stop-color="white" stop-opacity="0"/>
</linearGradient>
<linearGradient id="paint11_linear" x1="200.998" y1="313.043" x2="293.431" y2="313.043" gradientUnits="userSpaceOnUse">
<stop stop-color="#E26700"/>
<stop offset="1" stop-color="#B45200"/>
</linearGradient>
<linearGradient id="paint12_linear" x1="174.433" y1="134.013" x2="273.897" y2="323.57" gradientUnits="userSpaceOnUse">
<stop stop-color="#FFC27B"/>
<stop offset="0.9265" stop-color="#FF8A00"/>
</linearGradient>
<radialGradient id="paint13_radial" cx="0" cy="0" r="1" gradientUnits="userSpaceOnUse" gradientTransform="translate(261.835 313.13) scale(46.4415)">
<stop stop-color="#FFB800"/>
<stop offset="1" stop-color="white"/>
</radialGradient>
<linearGradient id="paint14_linear" x1="178.998" y1="348.043" x2="271.431" y2="348.043" gradientUnits="userSpaceOnUse">
<stop stop-color="#E26700"/>
<stop offset="1" stop-color="#B45200"/>
</linearGradient>
<linearGradient id="paint15_linear" x1="152.433" y1="169.013" x2="251.897" y2="358.57" gradientUnits="userSpaceOnUse">
<stop stop-color="#FFC27B"/>
<stop offset="0.9265" stop-color="#FF8A00"/>
</linearGradient>
<radialGradient id="paint16_radial" cx="0" cy="0" r="1" gradientUnits="userSpaceOnUse" gradientTransform="translate(239.835 348.13) scale(46.4415)">
<stop stop-color="#FFB800"/>
<stop offset="1" stop-color="white"/>
</radialGradient>
</defs>
</svg>
