<svg width="394" height="511" viewBox="0 0 394 511" fill="none" xmlns="http://www.w3.org/2000/svg">
<path opacity="0.1" d="M334.932 403.942C334.261 403.545 333.565 403.246 332.82 402.973C332.72 402.948 332.571 402.898 332.447 402.849C332.273 402.799 332.074 402.749 331.925 402.699C331.751 402.65 331.627 402.6 331.478 402.55L339.717 384.791C340.189 384.816 340.661 384.841 341.183 384.841C341.382 384.841 341.531 384.816 341.705 384.816C342.376 384.791 343.023 384.692 343.719 384.593C343.992 384.593 344.241 384.543 344.489 384.493C345.086 384.369 345.657 384.245 346.204 384.071C346.428 383.996 346.676 383.946 346.925 383.847C347.049 383.822 347.149 383.797 347.273 383.748C347.894 383.524 348.491 383.226 349.038 382.902C351.573 381.461 352.642 379.448 352.294 377.534L394 371.072L393.056 369.009L351.337 375.434C350.79 374.762 350.069 374.091 349.05 373.495C348.404 373.147 347.683 372.849 346.937 372.55C346.788 372.501 346.689 372.476 346.565 372.426C346.366 372.376 346.192 372.327 346.018 372.277C345.521 372.128 345.023 372.028 344.477 371.929C344.253 371.879 344.029 371.83 343.781 371.805C343.631 371.78 343.507 371.755 343.358 371.73C342.786 371.68 342.215 371.606 341.643 371.606C341.519 371.581 341.345 371.556 341.221 371.556C340.972 371.556 340.748 371.556 340.525 371.556C340.375 371.556 340.226 371.606 340.052 371.606C339.53 371.606 339.033 371.68 338.536 371.73C338.263 371.78 337.94 371.83 337.642 371.879C337.517 371.879 337.418 371.879 337.294 371.904C337.318 371.929 337.343 371.929 337.368 371.929C336.275 372.128 335.231 372.426 334.212 372.849L311.618 359.763C314.874 357.178 314.502 353.574 310.475 351.25C309.804 350.852 309.108 350.554 308.313 350.28C308.188 350.256 308.089 350.206 307.965 350.181C307.791 350.106 307.617 350.082 307.443 350.032C307.318 349.982 307.194 349.932 307.07 349.908L315.322 332.099C315.794 332.124 316.241 332.149 316.714 332.149C316.888 332.149 317.037 332.124 317.236 332.124C317.932 332.074 318.578 332.024 319.274 331.925C319.522 331.925 319.771 331.875 320.019 331.826C320.616 331.701 321.212 331.577 321.759 331.378C321.983 331.304 322.207 331.254 322.455 331.155C322.579 331.13 322.679 331.105 322.803 331.055C323.425 330.831 324.021 330.533 324.593 330.21C327.128 328.769 328.172 326.78 327.849 324.866L369.58 318.379L368.636 316.366L326.904 322.828C326.357 322.107 325.587 321.411 324.593 320.84C323.922 320.467 323.201 320.144 322.455 319.895C322.306 319.846 322.207 319.821 322.082 319.771C321.908 319.721 321.734 319.672 321.56 319.622C321.063 319.473 320.517 319.373 319.995 319.249C319.771 319.199 319.547 319.15 319.323 319.125C319.174 319.1 319.05 319.075 318.876 319.05C318.329 319 317.733 318.951 317.136 318.951C317.012 318.926 316.888 318.901 316.739 318.901C316.515 318.901 316.316 318.901 316.092 318.901C315.918 318.901 315.769 318.951 315.595 318.951C315.073 318.951 314.551 319 314.054 319.05C313.781 319.1 313.458 319.15 313.184 319.199C313.06 319.199 312.961 319.199 312.836 319.249C312.861 319.249 312.886 319.249 312.911 319.249C311.768 319.473 310.749 319.771 309.754 320.169L287.174 307.132C289.982 304.92 290.107 301.913 287.472 299.626C287.049 299.278 286.577 298.93 286.005 298.582C285.334 298.209 284.638 297.911 283.868 297.638C283.744 297.588 283.644 297.538 283.52 297.489C283.346 297.439 283.172 297.414 282.998 297.364C282.874 297.339 282.725 297.29 282.575 297.24L293.76 273.143L290.206 272.596L279.009 296.693C278.86 296.668 278.71 296.668 278.586 296.668C278.437 296.668 278.338 296.644 278.189 296.644C277.965 296.644 277.766 296.643 277.493 296.668C277.343 296.668 277.194 296.668 277.02 296.668C276.498 296.693 276.001 296.718 275.479 296.768C275.206 296.817 274.908 296.867 274.634 296.917C274.51 296.942 274.411 296.942 274.286 296.991H274.336C272.671 297.315 271.105 297.812 269.763 298.582C267.203 300.024 266.184 302.012 266.507 303.951L235.662 308.698C235.438 308.375 235.165 308.077 234.842 307.778C234.394 307.406 233.922 307.058 233.375 306.759C232.679 306.337 231.983 306.039 231.238 305.79C231.089 305.74 230.989 305.691 230.865 305.666C230.691 305.591 230.517 305.591 230.318 305.517C229.821 305.368 229.299 305.218 228.777 305.119C228.553 305.094 228.33 305.069 228.106 305.02C227.957 304.995 227.833 304.97 227.659 304.945C227.087 304.87 226.515 304.846 225.894 304.821C225.769 304.821 225.67 304.821 225.546 304.821C225.297 304.821 225.098 304.821 224.85 304.821C224.701 304.821 224.552 304.821 224.353 304.821C223.831 304.87 223.334 304.87 222.837 304.945C222.563 304.97 222.24 305.044 221.967 305.094C221.843 305.119 221.743 305.119 221.619 305.119H221.669C220.55 305.343 219.531 305.641 218.512 306.039L194.415 292.132C194.937 291.71 195.434 291.238 195.782 290.765C197.447 288.379 196.602 285.521 193.247 283.557C192.725 283.259 192.153 283.011 191.532 282.762L202.568 259.038L199.013 258.491L188.164 281.88C188.089 281.88 188.04 281.88 187.965 281.88C187.841 281.83 187.717 281.83 187.568 281.78C187.021 281.731 186.374 281.681 185.803 281.681C185.679 281.681 185.554 281.656 185.43 281.656C185.206 281.656 184.983 281.656 184.759 281.656C184.585 281.656 184.436 281.681 184.262 281.681C183.765 281.706 183.243 281.731 182.721 281.78C182.423 281.83 182.149 281.88 181.876 281.929C181.752 281.954 181.652 281.954 181.528 281.979C181.553 281.979 181.578 281.979 181.578 281.979C179.912 282.277 178.346 282.774 177.004 283.545C173.972 285.31 173.052 287.77 174.071 290.007L143.574 294.755C143.027 293.636 142.108 292.567 140.617 291.722C139.921 291.325 139.225 291.026 138.479 290.778C138.355 290.728 138.255 290.678 138.106 290.629C137.932 290.579 137.758 290.554 137.584 290.504C137.062 290.38 136.565 290.231 136.018 290.107C135.795 290.082 135.571 290.032 135.347 290.007C135.198 289.982 135.074 289.958 134.925 289.933C134.353 289.858 133.757 289.833 133.185 289.808C133.061 289.808 132.912 289.808 132.762 289.808C132.539 289.784 132.34 289.808 132.091 289.808C131.942 289.808 131.793 289.808 131.619 289.808C131.072 289.858 130.575 289.858 130.078 289.933C129.805 289.958 129.482 290.007 129.208 290.057C129.084 290.107 128.985 290.107 128.86 290.107C128.885 290.107 128.91 290.107 128.91 290.107C127.792 290.355 126.772 290.629 125.778 291.026L96.7477 274.287L94.1627 275.778L123.193 292.542C119.962 295.152 120.31 298.756 124.337 301.092C125.828 301.962 127.618 302.509 129.506 302.783L121.354 320.417C121.304 320.417 121.255 320.417 121.23 320.417C121.081 320.368 120.932 320.368 120.782 320.318C120.236 320.268 119.639 320.218 119.018 320.218C118.893 320.218 118.794 320.194 118.645 320.194C118.446 320.194 118.197 320.194 117.974 320.194C117.825 320.218 117.675 320.218 117.477 320.218C116.98 320.243 116.458 320.268 115.961 320.318C115.662 320.368 115.364 320.417 115.091 320.467C114.966 320.492 114.867 320.492 114.743 320.517C114.743 320.517 114.792 320.517 114.817 320.517C113.127 320.84 111.561 321.337 110.219 322.132C107.236 323.872 106.292 326.333 107.311 328.545L76.7643 333.23C76.292 332.161 75.3227 331.117 73.8314 330.247C73.21 329.875 72.4396 329.576 71.6939 329.303C71.5697 329.253 71.4702 329.203 71.3459 329.179C71.1968 329.104 70.9732 329.079 70.7992 329.029C70.3021 328.905 69.7801 328.756 69.2333 328.657C69.0096 328.632 68.7859 328.582 68.5622 328.557C68.4131 328.532 68.2888 328.508 68.1397 328.483C67.568 328.408 66.9715 328.383 66.3998 328.358C66.2755 328.358 66.1512 328.358 66.0269 328.358C65.7784 328.358 65.5548 328.358 65.3311 328.358C65.1571 328.358 65.0079 328.358 64.8339 328.358C64.312 328.408 63.7901 328.408 63.3178 328.483H63.293C63.0196 328.508 62.7214 328.582 62.448 328.632C62.2988 328.657 62.1994 328.657 62.0751 328.657C62.0999 328.657 62.1248 328.657 62.1248 328.657C61.0312 328.88 59.9872 329.154 59.0427 329.576L29.9873 312.812L27.3776 314.328L56.4081 331.092C53.177 333.677 53.525 337.294 57.5764 339.63C59.0925 340.5 60.882 341.047 62.7958 341.345L54.6311 358.955C54.5565 358.955 54.5068 358.955 54.4571 358.955C54.3079 358.905 54.1837 358.905 54.0594 358.855C53.4629 358.806 52.8912 358.756 52.2947 358.756C52.1704 358.756 52.0212 358.731 51.8969 358.731C51.6732 358.731 51.4496 358.731 51.2259 358.731C51.052 358.756 50.9028 358.756 50.7288 358.756C50.2069 358.781 49.6849 358.806 49.1878 358.855C48.9144 358.905 48.5912 358.955 48.3178 359.004C48.1935 359.029 48.0942 359.029 47.97 359.054C47.9948 359.054 48.0196 359.054 48.0196 359.054C46.3543 359.353 44.7885 359.899 43.4463 360.67C40.4389 362.41 39.4943 364.845 40.5631 367.082L0 373.346L0.994106 375.434L42.1041 369.046C42.4769 369.394 42.9244 369.742 43.4463 370.04C45.0868 370.96 47.1249 371.556 49.1878 371.83C49.1878 371.83 49.2127 371.83 49.2376 371.83C50.1075 371.929 50.9774 371.979 51.8473 371.979C52.0213 371.979 52.1952 371.929 52.3692 371.929C53.0651 371.929 53.7362 371.855 54.4073 371.78C54.6558 371.73 54.9044 371.681 55.1529 371.606C55.7743 371.507 56.346 371.357 56.8928 371.208C57.1165 371.109 57.3651 371.059 57.5888 370.985C57.7131 370.96 57.8374 370.91 57.9368 370.885C58.0611 370.835 58.1604 370.761 58.2847 370.711L82.4064 384.617C79.1753 387.227 79.5233 390.856 83.5747 393.168C84.5688 393.789 85.7617 394.187 87.0045 394.535L78.7279 412.318C78.5788 412.318 78.4297 412.293 78.2805 412.293C78.1563 412.293 78.0319 412.293 77.8828 412.269C77.6591 412.269 77.4353 412.269 77.2116 412.293C77.0377 412.293 76.8887 412.293 76.7396 412.293C76.2425 412.343 75.6955 412.343 75.1984 412.443C74.9001 412.467 74.6268 412.517 74.3037 412.567C74.2042 412.617 74.08 412.617 73.9805 412.617C73.9805 412.617 74.0054 412.617 74.0303 412.617C72.365 412.94 70.7742 413.437 69.4569 414.207C66.9217 415.649 65.853 417.637 66.2009 419.576L24.4447 426.038L25.4141 428.076L67.1206 421.614C67.7171 422.31 68.4627 423.006 69.4569 423.602C71.1222 424.547 73.1106 425.119 75.1984 425.367H75.2233C76.0932 425.467 76.988 425.541 77.833 425.541C78.0319 425.541 78.2059 425.516 78.355 425.516C79.051 425.467 79.7469 425.417 80.3932 425.317C80.6417 425.268 80.8902 425.218 81.1388 425.168C81.7601 425.069 82.3319 424.92 82.9035 424.771C83.1521 424.696 83.3758 424.621 83.5747 424.572C83.6989 424.522 83.8231 424.497 83.9225 424.448C84.0468 424.423 84.1462 424.298 84.2705 424.249L106.826 437.31C103.595 439.895 103.993 443.524 108.044 445.86C109.038 446.432 110.182 446.879 111.449 447.177L100.252 471.274L103.831 471.846L115.004 447.749C115.451 447.749 115.948 447.799 116.395 447.774C116.569 447.774 116.744 447.749 116.942 447.749C117.638 447.724 118.284 447.65 118.931 447.575C119.179 447.55 119.453 447.5 119.726 447.451C120.323 447.351 120.869 447.177 121.441 447.003C121.69 446.929 121.913 446.879 122.137 446.805C122.236 446.755 122.361 446.73 122.46 446.68C123.131 446.457 123.728 446.183 124.275 445.86C126.81 444.394 127.854 442.405 127.531 440.491L158.351 435.744C158.922 436.465 159.643 437.111 160.687 437.708C162.278 438.652 164.316 439.224 166.428 439.472L166.404 439.497C166.428 439.497 166.453 439.497 166.453 439.497C167.298 439.597 168.193 439.646 169.038 439.621C169.262 439.597 169.436 439.597 169.61 439.597C170.256 439.547 170.952 439.497 171.598 439.398C171.847 439.373 172.095 439.323 172.369 439.298C172.99 439.174 173.537 439.05 174.084 438.851C174.307 438.801 174.581 438.751 174.805 438.652C174.904 438.577 175.028 438.577 175.153 438.528C175.277 438.478 175.376 438.428 175.501 438.379L198.081 451.415C194.85 454.025 195.223 457.654 199.274 459.99C200.293 460.562 201.437 460.984 202.654 461.307L191.457 485.379L195.012 485.926L206.209 461.854C206.681 461.879 207.203 461.929 207.675 461.904C207.849 461.904 208.023 461.879 208.197 461.879C208.868 461.854 209.539 461.78 210.21 461.705C210.459 461.68 210.732 461.63 210.981 461.581C211.552 461.481 212.124 461.307 212.696 461.133C212.944 461.059 213.168 461.009 213.392 460.91C213.516 460.885 213.64 460.86 213.74 460.81C214.386 460.587 214.958 460.288 215.504 459.99C218.089 458.524 219.133 456.51 218.785 454.621L249.581 449.824C250.152 450.545 250.923 451.241 251.942 451.838C253.533 452.782 255.558 453.354 257.671 453.627L257.646 453.652C257.646 453.652 257.671 453.652 257.696 453.652C258.541 453.751 259.436 453.776 260.305 453.776C260.504 453.751 260.678 453.751 260.852 453.751C261.498 453.702 262.194 453.652 262.865 453.528C263.114 453.503 263.363 453.453 263.611 453.428C264.208 453.304 264.779 453.155 265.351 452.981C265.575 452.931 265.823 452.881 266.047 452.782C266.171 452.732 266.296 452.708 266.395 452.658C266.519 452.608 266.619 452.558 266.743 452.509L297.29 470.168L299.874 468.627L269.353 450.993C272.609 448.383 272.211 444.791 268.184 442.455C267.538 442.082 266.793 441.784 266.047 441.486C265.948 441.461 265.823 441.411 265.699 441.386C265.525 441.336 265.351 441.287 265.152 441.237C265.003 441.187 264.879 441.137 264.754 441.113L273.031 423.304C273.479 423.329 273.926 423.379 274.448 423.354C274.622 423.354 274.796 423.329 274.945 423.329C275.616 423.304 276.312 423.23 276.983 423.155C277.232 423.13 277.48 423.08 277.754 423.031C278.325 422.931 278.897 422.782 279.469 422.608C279.692 422.509 279.941 422.459 280.165 422.36C280.289 422.335 280.388 422.31 280.513 422.26C281.159 422.037 281.73 421.763 282.277 421.44C284.837 419.974 285.881 417.985 285.533 416.096L316.378 411.324C316.925 412.045 317.671 412.716 318.69 413.288C320.305 414.232 322.318 414.804 324.431 415.077V415.102C324.456 415.102 324.456 415.102 324.481 415.102C325.326 415.201 326.196 415.226 327.091 415.201C327.265 415.201 327.439 415.201 327.637 415.201C328.284 415.152 328.955 415.102 329.651 415.003C329.899 414.978 330.148 414.928 330.396 414.878C330.968 414.754 331.565 414.605 332.111 414.431C332.36 414.381 332.584 414.331 332.832 414.232C332.956 414.182 333.056 414.182 333.18 414.133C333.304 414.083 333.404 414.033 333.528 413.984L364.05 431.618L366.66 430.102L336.113 412.467C339.357 409.883 338.984 406.254 334.932 403.942ZM224.117 318.006C224.589 318.031 225.061 318.056 225.533 318.056C225.707 318.056 225.856 318.031 226.055 318.031C226.726 318.006 227.373 317.957 228.093 317.857C228.342 317.807 228.591 317.758 228.839 317.708C229.411 317.584 230.007 317.435 230.579 317.286C230.803 317.211 231.026 317.161 231.275 317.087C231.374 317.037 231.499 317.012 231.623 316.987C231.847 316.888 232.07 316.739 232.294 316.639C232.642 316.49 233.064 316.316 233.412 316.117C235.923 314.651 236.992 312.687 236.668 310.798L267.489 306.001C268.011 306.722 268.781 307.393 269.8 307.99C271.44 308.909 273.429 309.506 275.504 309.754H275.554C276.424 309.854 277.294 309.904 278.189 309.904C278.363 309.904 278.512 309.879 278.686 309.854C279.357 309.854 280.053 309.779 280.724 309.705C280.972 309.655 281.246 309.605 281.494 309.556C282.066 309.456 282.638 309.307 283.234 309.158C283.458 309.059 283.682 308.984 283.905 308.934C284.005 308.885 284.129 308.835 284.253 308.81C284.377 308.76 284.477 308.686 284.626 308.636L307.182 321.648C303.951 324.257 304.299 327.911 308.325 330.222C309.369 330.819 310.537 331.242 311.73 331.59L303.528 349.373C303.354 349.373 303.18 349.348 303.031 349.348C302.907 349.323 302.782 349.323 302.658 349.323C302.41 349.323 302.211 349.323 301.987 349.323C301.813 349.323 301.639 349.348 301.465 349.373C300.968 349.373 300.471 349.398 299.924 349.473C299.651 349.497 299.352 349.572 299.079 349.622C298.955 349.622 298.855 349.622 298.731 349.647C298.756 349.647 298.781 349.647 298.781 349.647C297.116 349.995 295.55 350.492 294.208 351.262C291.697 352.729 290.629 354.692 290.952 356.606L260.156 361.378C259.61 360.657 258.839 359.986 257.82 359.39C257.199 359.042 256.428 358.744 255.682 358.445C255.583 358.396 255.459 358.371 255.334 358.321C255.161 358.271 254.986 358.222 254.812 358.172C254.315 358.023 253.793 357.923 253.222 357.824C252.998 357.774 252.774 357.724 252.551 357.7C252.402 357.675 252.277 357.65 252.128 357.625C251.556 357.575 250.985 357.526 250.388 357.526C250.264 357.501 250.14 357.476 249.991 357.476C249.767 357.476 249.543 357.476 249.32 357.476C249.146 357.501 248.997 357.526 248.823 357.526C248.301 357.526 247.779 357.575 247.306 357.625H247.282C247.008 357.675 246.735 357.724 246.412 357.774C246.312 357.774 246.188 357.774 246.088 357.824C246.088 357.824 246.113 357.824 246.138 357.824C245.045 358.023 243.976 358.321 243.006 358.744L220.426 345.732C223.234 343.495 223.359 340.488 220.724 338.176C220.326 337.828 219.829 337.48 219.282 337.157C218.586 336.784 217.891 336.461 217.12 336.213C217.021 336.163 216.896 336.113 216.772 336.063C216.598 336.014 216.424 335.989 216.275 335.939C216.126 335.914 216.002 335.865 215.877 335.815L224.117 318.006ZM232.033 388.221C230.343 388.52 228.777 389.017 227.472 389.787C224.962 391.279 223.868 393.217 224.191 395.156L193.421 399.928C192.849 399.207 192.079 398.536 191.06 397.94C190.438 397.567 189.693 397.269 188.922 396.995C188.823 396.945 188.698 396.921 188.599 396.871C188.425 396.821 188.251 396.772 188.052 396.722C187.555 396.573 187.033 396.473 186.486 396.349C186.238 396.299 186.014 396.25 185.79 396.225C185.641 396.2 185.517 396.175 185.393 396.15C184.821 396.1 184.224 396.051 183.628 396.051C183.504 396.026 183.38 396.001 183.255 396.001C183.032 396.001 182.783 396.001 182.559 396.026C182.385 396.026 182.236 396.051 182.087 396.051C181.565 396.051 181.043 396.1 180.546 396.15C180.248 396.2 179.974 396.25 179.676 396.299C179.552 396.299 179.428 396.299 179.328 396.349C179.328 396.349 179.353 396.349 179.378 396.349C178.309 396.573 177.216 396.871 176.271 397.269L153.665 384.257C156.474 382.02 156.598 379.038 153.989 376.739C153.566 376.391 153.069 376.018 152.522 375.694C151.876 375.322 151.13 375.023 150.385 374.775C150.285 374.725 150.136 374.675 150.012 374.626C149.863 374.551 149.689 374.526 149.515 374.477C149.366 374.452 149.241 374.402 149.117 374.352L157.356 356.569C157.829 356.618 158.276 356.618 158.748 356.618C158.947 356.618 159.096 356.593 159.27 356.593C159.941 356.569 160.662 356.519 161.308 356.395C161.557 356.345 161.805 356.295 162.054 356.246C162.65 356.146 163.222 355.997 163.794 355.848C164.017 355.773 164.266 355.724 164.49 355.649C164.614 355.599 164.738 355.574 164.838 355.55C165.061 355.425 165.285 355.301 165.509 355.177C165.906 355.028 166.304 354.879 166.627 354.68C169.138 353.213 170.206 351.225 169.883 349.336L200.703 344.564C201.275 345.26 202.021 345.956 203.015 346.527C204.655 347.472 206.644 348.068 208.719 348.317C208.719 348.317 208.744 348.317 208.794 348.317C209.639 348.416 210.509 348.466 211.403 348.466C211.577 348.466 211.726 348.441 211.9 348.416C212.596 348.416 213.292 348.367 213.963 348.267C214.212 348.217 214.461 348.168 214.709 348.118C215.281 348.019 215.902 347.87 216.449 347.696C216.673 347.596 216.896 347.546 217.12 347.497C217.244 347.447 217.344 347.422 217.493 347.372C217.617 347.323 217.717 347.248 217.841 347.198L240.397 360.235C237.166 362.82 237.513 366.473 241.565 368.772C242.584 369.369 243.752 369.816 245.02 370.115L236.743 387.923C236.594 387.923 236.445 387.898 236.271 387.898C236.122 387.898 235.997 387.873 235.873 387.873C235.649 387.873 235.426 387.873 235.202 387.873C235.028 387.873 234.879 387.898 234.73 387.923C234.208 387.923 233.686 387.948 233.189 388.023C232.89 388.047 232.567 388.122 232.294 388.172C232.195 388.172 232.07 388.172 231.971 388.197L232.033 388.221ZM133.359 303.006C134.005 303.006 134.676 302.957 135.347 302.857C135.596 302.808 135.844 302.758 136.093 302.708C136.689 302.609 137.261 302.46 137.833 302.31C138.057 302.236 138.305 302.136 138.529 302.087C138.653 302.037 138.753 302.012 138.877 301.962C139.498 301.739 140.095 301.44 140.666 301.117C142.68 299.949 143.773 298.433 143.947 296.892L175.662 291.996C176.06 292.319 176.532 292.667 177.054 292.99C178.694 293.909 180.683 294.506 182.758 294.779H182.783C183.678 294.879 184.548 294.929 185.442 294.929C185.592 294.929 185.766 294.879 185.94 294.879C186.636 294.879 187.307 294.804 187.953 294.705C188.251 294.68 188.5 294.63 188.748 294.581C189.32 294.456 189.941 294.307 190.488 294.133C190.712 294.059 190.935 294.009 191.159 293.934C191.259 293.909 191.383 293.86 191.507 293.835C191.631 293.785 191.756 293.711 191.88 293.661L216.002 307.567C212.746 310.177 213.118 313.769 217.145 316.105C218.164 316.701 219.357 317.124 220.55 317.447L212.323 335.256C212.149 335.231 212 335.231 211.851 335.231C211.727 335.231 211.602 335.206 211.478 335.206C211.254 335.206 211.031 335.206 210.807 335.231C210.633 335.231 210.459 335.231 210.285 335.231C209.763 335.256 209.266 335.28 208.744 335.33C208.471 335.38 208.172 335.43 207.899 335.479C207.799 335.529 207.675 335.504 207.551 335.529C207.576 335.529 207.601 335.529 207.601 335.529C205.935 335.877 204.37 336.374 203.027 337.145C200.492 338.586 199.448 340.575 199.771 342.488L168.951 347.261C168.703 346.937 168.429 346.614 168.106 346.316C167.708 345.968 167.187 345.62 166.64 345.297C165.994 344.899 165.248 344.601 164.502 344.328C164.378 344.278 164.279 344.228 164.154 344.203C163.98 344.154 163.781 344.129 163.632 344.079C163.11 343.93 162.588 343.781 162.041 343.681C161.818 343.657 161.594 343.632 161.371 343.582C161.221 343.557 161.097 343.532 160.973 343.507C160.351 343.408 159.78 343.383 159.208 343.358C159.084 343.358 158.96 343.358 158.81 343.358C158.587 343.358 158.363 343.358 158.139 343.358C157.965 343.358 157.816 343.358 157.667 343.358C157.095 343.408 156.598 343.408 156.126 343.507C155.828 343.532 155.53 343.607 155.231 343.657C155.107 343.681 155.008 343.681 154.883 343.681C154.908 343.681 154.933 343.681 154.958 343.706C153.839 343.905 152.795 344.203 151.801 344.601L127.68 330.695C128.226 330.247 128.724 329.8 129.047 329.328C130.737 326.917 129.892 324.083 126.536 322.145C125.989 321.797 125.418 321.548 124.821 321.324L133.359 303.006ZM85.1032 383.151L60.9566 369.22C61.5034 368.797 61.9756 368.325 62.3236 367.878C63.9889 365.467 63.1687 362.608 59.7885 360.695C59.2914 360.371 58.67 360.098 58.0984 359.899L66.5987 341.569C67.2449 341.544 67.9408 341.494 68.5871 341.395C68.8356 341.345 69.0841 341.295 69.3327 341.246C69.9292 341.146 70.5257 340.972 71.0726 340.823C71.3211 340.749 71.5449 340.674 71.7686 340.624C71.8928 340.575 72.017 340.55 72.1164 340.525C72.7378 340.276 73.3592 339.953 73.9061 339.655C75.9193 338.487 77.0129 336.971 77.1869 335.43L108.902 330.508C109.324 330.856 109.772 331.204 110.294 331.527C111.934 332.447 113.922 333.043 116.035 333.292C116.035 333.292 116.06 333.292 116.085 333.292C116.955 333.391 117.825 333.441 118.695 333.441C118.868 333.441 119.018 333.392 119.192 333.392C119.912 333.392 120.559 333.317 121.255 333.242C121.503 333.193 121.752 333.143 122 333.093C122.572 332.994 123.193 332.845 123.74 332.696C123.964 332.596 124.188 332.546 124.411 332.472C124.56 332.447 124.66 332.397 124.784 332.372C124.908 332.298 125.008 332.223 125.132 332.174L149.254 346.105C146.023 348.715 146.37 352.306 150.422 354.642C151.416 355.239 152.609 355.661 153.852 355.985L145.575 373.793C145.426 373.768 145.277 373.768 145.103 373.768C144.979 373.768 144.854 373.768 144.73 373.743C144.506 373.743 144.283 373.743 144.059 373.768C143.885 373.768 143.736 373.768 143.562 373.768C143.015 373.818 142.518 373.818 142.046 373.868H142.021L142.046 373.893C141.747 373.917 141.449 373.967 141.151 374.017C141.052 374.067 140.927 374.042 140.828 374.067C140.828 374.067 140.853 374.067 140.878 374.067C139.188 374.39 137.622 374.912 136.279 375.657C133.769 377.124 132.7 379.112 133.023 381.026L102.228 385.798C101.955 385.45 101.706 385.152 101.358 384.854C100.961 384.481 100.488 384.133 99.8918 383.835C99.2455 383.437 98.4999 383.114 97.7543 382.865C97.6549 382.815 97.5305 382.766 97.4063 382.741C97.2571 382.691 97.0832 382.666 96.8844 382.617C96.3625 382.468 95.8405 382.343 95.3185 382.244C95.07 382.169 94.8462 382.144 94.6225 382.095C94.4734 382.07 94.3492 382.045 94.2249 382.045C93.6533 381.946 93.0318 381.921 92.4602 381.896C92.3359 381.896 92.2117 381.896 92.0874 381.896C91.8637 381.896 91.6151 381.896 91.3914 381.896C91.2174 381.896 91.0683 381.896 90.9192 381.921C90.3724 381.946 89.8753 381.946 89.3782 382.02C89.0799 382.045 88.7817 382.12 88.5083 382.169C88.4089 382.219 88.2597 382.219 88.1603 382.219C88.1603 382.219 88.1852 382.244 88.2101 382.244C87.0916 382.455 86.0477 382.753 85.1032 383.151ZM169.995 426.448C169.846 426.448 169.697 426.448 169.548 426.423C169.423 426.423 169.299 426.399 169.125 426.399C168.902 426.399 168.678 426.399 168.454 426.399C168.28 426.399 168.131 426.423 167.982 426.448C167.46 426.448 166.963 426.473 166.466 426.548C166.143 426.573 165.869 426.647 165.546 426.697C165.447 426.697 165.322 426.697 165.223 426.722L165.273 426.747C163.607 427.07 162.017 427.567 160.724 428.337C158.189 429.804 157.108 431.767 157.443 433.681L126.648 438.453C126.076 437.757 125.306 437.086 124.312 436.49C123.666 436.117 122.945 435.819 122.174 435.52C122.05 435.495 121.926 435.446 121.826 435.396C121.652 435.346 121.478 435.297 121.304 435.247C120.782 435.098 120.26 434.998 119.714 434.899C119.49 434.849 119.241 434.8 119.018 434.775C118.893 434.75 118.744 434.725 118.62 434.7C118.048 434.65 117.452 434.601 116.88 434.601C116.731 434.601 116.607 434.551 116.483 434.551C116.259 434.551 116.035 434.551 115.787 434.576C115.637 434.576 115.463 434.601 115.314 434.601C114.817 434.601 114.32 434.65 113.773 434.7C113.475 434.75 113.202 434.8 112.903 434.849C112.804 434.874 112.68 434.849 112.58 434.899C112.605 434.899 112.605 434.899 112.605 434.899C111.536 435.098 110.443 435.396 109.498 435.819L86.9424 422.807C89.7013 420.57 89.8256 417.563 87.2158 415.288C86.8181 414.916 86.3211 414.568 85.7495 414.244C85.1281 413.847 84.3575 413.549 83.6118 413.3C83.5124 413.25 83.3881 413.201 83.2887 413.151C83.0899 413.101 82.9159 413.076 82.742 413.027C82.6177 413.002 82.4933 412.952 82.3442 412.902L90.5836 395.094C91.0558 395.168 91.5281 395.168 92.0004 395.168C92.1743 395.168 92.3484 395.168 92.4975 395.143C93.1686 395.094 93.8894 395.044 94.5356 394.945C94.7842 394.895 95.0327 394.845 95.3061 394.796C95.9026 394.696 96.4495 394.547 97.046 394.398C97.2697 394.323 97.5181 394.249 97.717 394.174C97.8412 394.125 97.9655 394.1 98.065 394.075C98.3135 393.975 98.5124 393.851 98.761 393.752C99.1338 393.578 99.5315 393.429 99.8546 393.205C102.415 391.738 103.434 389.775 103.111 387.886L133.931 383.089C134.502 383.81 135.248 384.481 136.242 385.077C137.882 386.022 139.871 386.618 141.984 386.867H142.008C142.878 386.966 143.798 387.016 144.643 387.016C144.817 387.016 144.991 386.991 145.165 386.966C145.836 386.966 146.532 386.917 147.203 386.817C147.452 386.767 147.7 386.718 147.949 386.668C148.52 386.569 149.142 386.395 149.689 386.246C149.912 386.171 150.161 386.096 150.385 386.047C150.509 385.997 150.633 385.972 150.733 385.922C150.857 385.873 150.956 385.798 151.081 385.748L173.636 398.785C170.405 401.37 170.753 404.986 174.805 407.36C175.824 407.907 176.992 408.379 178.259 408.677L169.995 426.448ZM261.138 440.578C261.014 440.578 260.89 440.553 260.765 440.553C260.641 440.553 260.517 440.529 260.368 440.529C260.144 440.529 259.92 440.529 259.697 440.529C259.498 440.529 259.349 440.553 259.199 440.578C258.653 440.578 258.156 440.628 257.683 440.678C257.385 440.703 257.112 440.802 256.788 440.852C256.689 440.852 256.565 440.852 256.416 440.877C256.441 440.877 256.465 440.901 256.465 440.901C254.825 441.2 253.234 441.722 251.942 442.467C249.407 443.909 248.388 445.872 248.686 447.786L217.841 452.558C217.269 451.862 216.548 451.191 215.504 450.62C214.883 450.247 214.162 449.949 213.392 449.675C213.292 449.65 213.168 449.601 213.044 449.551C212.895 449.501 212.696 449.452 212.522 449.402C212 449.228 211.478 449.128 210.956 449.029C210.732 448.979 210.509 448.93 210.26 448.905C210.111 448.88 209.962 448.855 209.838 448.83C209.266 448.78 208.669 448.731 208.098 448.731C207.973 448.706 207.849 448.681 207.725 448.681C207.501 448.681 207.277 448.681 207.004 448.706C206.83 448.706 206.681 448.731 206.532 448.731C206.01 448.731 205.513 448.78 205.016 448.83C204.717 448.88 204.444 448.93 204.146 448.979C204.021 448.979 203.897 448.979 203.798 449.029C203.798 449.029 203.823 449.029 203.847 449.029C202.729 449.228 201.685 449.551 200.716 449.949L178.135 436.887C181.366 434.303 180.969 430.674 176.917 428.337C176.296 427.965 175.55 427.641 174.78 427.368C174.68 427.343 174.556 427.293 174.457 427.268C174.258 427.219 174.084 427.169 173.91 427.119C173.785 427.07 173.636 427.02 173.512 426.995L181.789 409.187C182.236 409.211 182.708 409.261 183.181 409.236C183.355 409.236 183.529 409.211 183.703 409.211C184.374 409.187 185.07 409.112 185.716 409.037C185.964 409.013 186.213 408.963 186.486 408.913C187.108 408.789 187.655 408.665 188.226 408.491C188.45 408.416 188.699 408.366 188.897 408.267C189.022 408.242 189.146 408.217 189.245 408.167C189.916 407.919 190.513 407.646 191.035 407.347C193.595 405.856 194.614 403.892 194.291 401.954L225.136 397.182C225.683 397.927 226.428 398.598 227.447 399.17C229.063 400.114 231.064 400.686 233.152 400.96V400.984C233.176 400.984 233.176 400.984 233.176 400.984C234.071 401.084 234.941 401.109 235.811 401.109C235.985 401.084 236.184 401.084 236.383 401.084C237.029 401.034 237.7 400.984 238.371 400.885C238.62 400.86 238.868 400.81 239.117 400.786C239.713 400.636 240.31 400.487 240.856 400.313C241.08 400.264 241.304 400.214 241.552 400.114C241.677 400.065 241.801 400.065 241.9 400.015C242.049 399.965 242.149 399.916 242.273 399.866L264.854 412.902C261.623 415.487 261.971 419.104 266.047 421.44C267.016 422.012 268.184 422.409 269.402 422.782L261.138 440.578ZM327.911 402.053C327.787 402.053 327.662 402.028 327.513 402.028C327.389 402.028 327.265 402.003 327.116 402.003C326.892 402.003 326.693 402.003 326.469 402.003C326.27 402.003 326.121 402.028 325.947 402.053C325.425 402.053 324.928 402.078 324.431 402.153C324.158 402.177 323.835 402.252 323.536 402.302C323.412 402.302 323.313 402.302 323.188 402.327C323.188 402.327 323.238 402.351 323.263 402.351C321.598 402.65 320.007 403.172 318.69 403.942C316.179 405.384 315.135 407.347 315.434 409.236L284.589 414.033C284.042 413.313 283.296 412.666 282.277 412.07C281.631 411.722 280.91 411.399 280.165 411.125C280.065 411.075 279.941 411.051 279.792 411.001C279.618 410.951 279.444 410.902 279.27 410.852C278.748 410.703 278.251 410.603 277.729 410.479C277.48 410.429 277.256 410.38 277.033 410.355C276.859 410.33 276.735 410.305 276.61 410.28C276.039 410.23 275.442 410.181 274.87 410.181C274.746 410.156 274.622 410.131 274.498 410.131C274.249 410.131 274 410.131 273.777 410.131C273.603 410.156 273.454 410.181 273.28 410.181C272.783 410.181 272.261 410.23 271.788 410.28H271.764C271.49 410.33 271.192 410.38 270.894 410.429C270.794 410.429 270.645 410.429 270.521 410.479C270.546 410.479 270.571 410.479 270.571 410.479C269.502 410.703 268.458 411.001 267.464 411.399L244.833 398.337C248.114 395.753 247.716 392.149 243.69 389.8C243.044 389.427 242.323 389.129 241.552 388.83C241.428 388.806 241.304 388.756 241.18 388.731C241.03 388.681 240.856 388.632 240.682 388.582C240.533 388.532 240.409 388.482 240.285 388.458L248.561 370.674C249.009 370.699 249.456 370.748 249.929 370.724C250.127 370.724 250.301 370.699 250.475 370.699C251.146 370.674 251.842 370.599 252.489 370.525C252.737 370.5 252.986 370.45 253.234 370.401C253.856 370.276 254.427 370.127 254.974 369.953C255.198 369.878 255.471 369.829 255.67 369.729C255.794 369.705 255.918 369.68 256.018 369.63C256.664 369.406 257.261 369.108 257.808 368.785C260.343 367.343 261.387 365.355 261.064 363.441L291.908 358.681C292.455 359.402 293.201 360.073 294.195 360.645C295.836 361.614 297.849 362.186 299.899 362.434C299.899 362.434 299.899 362.435 299.899 362.459C299.924 362.459 299.924 362.459 299.949 362.459C300.844 362.559 301.689 362.584 302.584 362.559C302.758 362.559 302.907 362.559 303.106 362.559C303.802 362.509 304.448 362.459 305.119 362.36C305.392 362.335 305.641 362.285 305.889 362.236C306.486 362.136 307.082 361.987 307.629 361.813C307.853 361.763 308.077 361.714 308.3 361.614C308.425 361.54 308.524 361.54 308.673 361.49C308.797 361.44 308.897 361.391 309.046 361.341L331.627 374.377C328.396 376.962 328.743 380.616 332.82 382.927C333.789 383.524 334.957 383.921 336.175 384.269L327.911 402.053Z" fill="url(#paint0_radial)"/>
<path d="M242.142 370.449C242.148 370.333 242.154 370.217 242.142 370.101V365.017H151.663V370.519C151.669 371.569 152.301 372.579 153.601 373.328L191.836 395.405C194.72 397.071 199.752 396.862 203.083 394.941L239.397 373.972C241.08 373.003 242.003 371.778 242.131 370.589H242.136V370.449H242.142Z" fill="url(#paint1_linear)"/>
<path d="M191.796 390.159L153.561 368.082C150.677 366.417 151.043 363.509 154.368 361.588L190.681 340.619C194.013 338.698 199.045 338.489 201.929 340.155L240.163 362.232C243.048 363.898 242.682 366.805 239.357 368.726L203.043 389.695C199.712 391.616 194.674 391.825 191.796 390.159Z" fill="url(#paint2_linear)"/>
<path opacity="0.4" d="M191.842 390.148L153.607 368.07C150.723 366.405 151.088 363.497 154.414 361.576L190.727 340.608C194.059 338.687 199.09 338.478 201.975 340.143L240.209 362.22C243.094 363.886 242.728 366.794 239.403 368.715L203.089 389.683C199.758 391.604 194.72 391.813 191.842 390.148Z" fill="url(#paint3_radial)"/>
<path d="M241.852 357.117C241.86 357.003 241.862 356.889 241.852 356.775L241.847 351.791L151.262 352.035L151.269 357.429C151.276 358.459 151.909 359.444 153.214 360.178L191.524 381.701C194.412 383.325 199.451 383.104 202.781 381.213L239.112 360.569C240.794 359.612 241.717 358.413 241.845 357.248L241.851 357.248L241.852 357.117Z" fill="url(#paint4_linear)"/>
<path d="M191.842 377.971L153.608 355.894C150.724 354.229 151.089 351.321 154.415 349.4L190.728 328.431C194.059 326.51 199.091 326.301 201.976 327.967L240.21 350.044C243.095 351.71 242.729 354.617 239.403 356.538L203.09 377.507C199.759 379.428 194.721 379.637 191.842 377.971Z" fill="url(#paint5_linear)"/>
<path d="M223.176 355.18L222.201 355.743L200.733 368.14C198.673 369.33 195.562 369.457 193.78 368.424L171.622 355.633L170.142 354.78C168.36 353.753 168.586 351.954 170.641 350.77L193.09 337.81C195.144 336.62 198.261 336.493 200.042 337.52L223.675 351.164C225.456 352.191 225.23 353.991 223.176 355.18Z" fill="#FFB960"/>
<path d="M222.195 355.743L200.727 368.14C198.667 369.33 195.556 369.457 193.774 368.424L171.616 355.633L193.083 343.236C195.138 342.047 198.255 341.919 200.036 342.952L222.195 355.743Z" fill="#FFD6B4"/>
<path d="M202.567 359.637C202.567 367.655 193.868 366.891 193.868 359.637V172.545C193.868 160.326 202.567 158.799 202.567 172.545V359.637Z" fill="url(#paint6_linear)"/>
<path d="M248.693 273.088L248.626 296.922L223.202 311.519L223.268 287.685L248.693 273.088Z" fill="#FB7400"/>
<path d="M223.268 287.685L223.202 311.519L197.597 296.922L197.673 273.088L223.268 287.685Z" fill="#F45C00"/>
<path d="M248.692 273.088L223.268 287.685L197.673 273.088L223.097 258.491L248.692 273.088Z" fill="#FF8F00"/>
<path d="M232.107 273.642C227.184 276.468 219.2 276.468 214.248 273.642C211.758 272.225 210.513 270.357 210.523 268.498L210.513 273.267C210.504 275.125 211.749 276.993 214.239 278.411C219.191 281.236 227.175 281.236 232.098 278.411C234.541 277.012 235.767 275.172 235.767 273.332L235.776 268.564C235.776 270.404 234.55 272.244 232.107 273.642Z" fill="#F45C00"/>
<path d="M235.787 268.568C235.799 264.576 230.153 261.324 223.177 261.304C216.201 261.285 210.536 264.505 210.525 268.497C210.513 272.489 216.159 275.741 223.135 275.76C230.111 275.78 235.776 272.56 235.787 268.568Z" fill="#FFA200"/>
<path d="M248.693 273.088L248.626 296.922L223.202 311.519L223.268 287.675L248.693 273.088Z" fill="#FB7400"/>
<path d="M223.268 287.676L223.202 311.519L197.597 296.912L197.663 273.079L223.268 287.676Z" fill="#F45C00"/>
<path d="M248.693 273.088L223.268 287.676L197.663 273.079L223.097 258.491L248.693 273.088Z" fill="#FF8F00"/>
<path d="M236.004 268.028H210.675L210.399 273.013L216.729 279.528H229.389L235.729 273.013L236.004 268.028Z" fill="#F45C00"/>
<path d="M229.674 261.514H217.005L210.675 268.028L217.005 274.543H229.674L236.004 268.028L229.674 261.514Z" fill="#FF9C31"/>
<path d="M273.404 287.168L273.338 311.002L247.913 325.599L247.98 301.765L273.404 287.168Z" fill="#FB7400"/>
<path d="M247.98 301.765L247.913 325.599L222.308 311.002L222.384 287.168L247.98 301.765Z" fill="#F45C00"/>
<path d="M273.404 287.169L247.98 301.766L222.384 287.169L247.809 272.572L273.404 287.169Z" fill="#FF8F00"/>
<path d="M256.819 287.723C251.896 290.548 243.912 290.548 238.96 287.723C236.47 286.305 235.225 284.437 235.234 282.579L235.225 287.347C235.215 289.206 236.46 291.074 238.951 292.491C243.902 295.317 251.886 295.317 256.81 292.491C259.252 291.093 260.478 289.253 260.478 287.413L260.488 282.644C260.488 284.484 259.262 286.324 256.819 287.723Z" fill="#F45C00"/>
<path d="M260.499 282.648C260.511 278.656 254.865 275.404 247.889 275.385C240.912 275.365 235.248 278.586 235.236 282.578C235.225 286.57 240.871 289.821 247.847 289.841C254.823 289.861 260.488 286.64 260.499 282.648Z" fill="#FFA200"/>
<path d="M273.404 287.168L273.338 311.002L247.913 325.599L247.98 301.756L273.404 287.168Z" fill="#FB7400"/>
<path d="M247.98 301.756L247.913 325.599L222.308 310.993L222.375 287.159L247.98 301.756Z" fill="#F45C00"/>
<path d="M273.404 287.169L247.98 301.756L222.375 287.159L247.809 272.572L273.404 287.169Z" fill="#FF8F00"/>
<path d="M260.716 282.109H235.387L235.111 287.093L241.441 293.608H254.101L260.44 287.093L260.716 282.109Z" fill="#F45C00"/>
<path d="M254.386 275.594H241.716L235.386 282.109L241.716 288.624H254.386L260.716 282.109L254.386 275.594Z" fill="#FF9C31"/>
<path d="M177.856 198.523L177.79 222.357L152.365 236.954L152.432 213.12L177.856 198.523Z" fill="#FB7400"/>
<path d="M152.432 213.12L152.365 236.954L126.76 222.357L126.836 198.523L152.432 213.12Z" fill="#F45C00"/>
<path d="M177.856 198.523L152.432 213.12L126.836 198.523L152.261 183.926L177.856 198.523Z" fill="#FF8F00"/>
<path d="M161.271 199.077C156.348 201.903 148.364 201.903 143.412 199.077C140.922 197.66 139.677 195.792 139.686 193.933L139.677 198.702C139.667 200.56 140.912 202.428 143.403 203.846C148.354 206.671 156.338 206.671 161.261 203.846C163.704 202.447 164.93 200.607 164.93 198.767L164.94 193.999C164.94 195.839 163.714 197.679 161.271 199.077Z" fill="#F45C00"/>
<path d="M164.951 194.003C164.963 190.011 159.317 186.759 152.34 186.739C145.364 186.72 139.7 189.94 139.688 193.932C139.677 197.924 145.323 201.176 152.299 201.196C159.275 201.215 164.94 197.995 164.951 194.003Z" fill="#FFA200"/>
<path d="M177.856 198.523L177.79 222.357L152.365 236.954L152.432 213.11L177.856 198.523Z" fill="#FB7400"/>
<path d="M152.432 213.111L152.365 236.954L126.76 222.347L126.827 198.514L152.432 213.111Z" fill="#F45C00"/>
<path d="M177.856 198.523L152.432 213.111L126.827 198.514L152.261 183.926L177.856 198.523Z" fill="#FF8F00"/>
<path d="M165.168 193.463H139.838L139.563 198.448L145.893 204.963H158.553L164.892 198.448L165.168 193.463Z" fill="#F45C00"/>
<path d="M158.838 186.949H146.168L139.838 193.463L146.168 199.978H158.838L165.168 193.463L158.838 186.949Z" fill="#FF9C31"/>
<path d="M202.568 212.604L202.501 236.437L177.077 251.034L177.143 227.2L202.568 212.604Z" fill="#FB7400"/>
<path d="M177.143 227.2L177.077 251.034L151.472 236.437L151.548 212.604L177.143 227.2Z" fill="#F45C00"/>
<path d="M202.568 212.604L177.143 227.201L151.548 212.604L176.972 198.007L202.568 212.604Z" fill="#FF8F00"/>
<path d="M185.983 213.158C181.059 215.983 173.076 215.983 168.124 213.158C165.634 211.74 164.388 209.872 164.398 208.014L164.388 212.782C164.379 214.641 165.624 216.509 168.114 217.926C173.066 220.752 181.05 220.752 185.973 217.926C188.416 216.528 189.642 214.688 189.642 212.848L189.651 208.079C189.651 209.919 188.425 211.759 185.983 213.158Z" fill="#F45C00"/>
<path d="M189.663 208.083C189.674 204.091 184.028 200.84 177.052 200.82C170.076 200.8 164.411 204.021 164.4 208.013C164.388 212.005 170.034 215.257 177.011 215.276C183.987 215.296 189.651 212.075 189.663 208.083Z" fill="#FFA200"/>
<path d="M202.568 212.604L202.501 236.437L177.077 251.034L177.143 227.191L202.568 212.604Z" fill="#FB7400"/>
<path d="M177.143 227.191L177.077 251.034L151.472 236.428L151.538 212.594L177.143 227.191Z" fill="#F45C00"/>
<path d="M202.568 212.604L177.144 227.191L151.539 212.594L176.972 198.007L202.568 212.604Z" fill="#FF8F00"/>
<path d="M189.879 207.544H164.55L164.274 212.528L170.604 219.043H183.264L189.604 212.528L189.879 207.544Z" fill="#F45C00"/>
<path d="M183.549 201.029H170.88L164.55 207.544L170.88 214.059H183.549L189.879 207.544L183.549 201.029Z" fill="#FF9C31"/>
<path d="M188.754 253.204L188.82 277.037L214.245 291.634L214.178 267.801L188.754 253.204Z" fill="#FB7400"/>
<path d="M214.178 267.801L214.245 291.634L239.85 277.037L239.774 253.204L214.178 267.801Z" fill="#F45C00"/>
<path d="M188.754 253.204L214.178 267.801L239.774 253.204L214.35 238.607L188.754 253.204Z" fill="#FF8F00"/>
<path d="M205.339 253.758C210.262 256.583 218.246 256.583 223.198 253.758C225.688 252.34 226.933 250.472 226.924 248.614L226.933 253.382C226.943 255.241 225.698 257.109 223.208 258.527C218.256 261.352 210.272 261.352 205.349 258.527C202.906 257.128 201.68 255.288 201.68 253.448L201.67 248.679C201.67 250.519 202.897 252.359 205.339 253.758Z" fill="#F45C00"/>
<path d="M201.659 248.683C201.648 244.692 207.294 241.44 214.27 241.42C221.246 241.401 226.91 244.621 226.922 248.613C226.933 252.605 221.287 255.857 214.311 255.876C207.335 255.896 201.671 252.675 201.659 248.683Z" fill="#FFA200"/>
<path d="M188.754 253.204L188.82 277.037L214.245 291.634L214.178 267.791L188.754 253.204Z" fill="#FB7400"/>
<path d="M214.178 267.791L214.245 291.634L239.85 277.028L239.783 253.194L214.178 267.791Z" fill="#F45C00"/>
<path d="M188.754 253.204L214.178 267.791L239.783 253.194L214.349 238.607L188.754 253.204Z" fill="#FF8F00"/>
<path d="M201.442 248.144H226.772L227.047 253.129L220.717 259.643H208.057L201.718 253.129L201.442 248.144Z" fill="#F45C00"/>
<path d="M207.772 241.629H220.442L226.772 248.144L220.442 254.659H207.772L201.442 248.144L207.772 241.629Z" fill="#FF9C31"/>
<path d="M164.042 267.284L164.109 291.118L189.533 305.715L189.467 281.881L164.042 267.284Z" fill="#FB7400"/>
<path d="M189.467 281.881L189.533 305.715L215.138 291.118L215.062 267.284L189.467 281.881Z" fill="#F45C00"/>
<path d="M164.042 267.284L189.467 281.881L215.062 267.284L189.638 252.688L164.042 267.284Z" fill="#FF8F00"/>
<path d="M180.627 267.838C185.551 270.664 193.535 270.664 198.486 267.838C200.977 266.421 202.222 264.553 202.212 262.694L202.222 267.463C202.231 269.322 200.986 271.19 198.496 272.607C193.544 275.433 185.56 275.433 180.637 272.607C178.194 271.208 176.968 269.369 176.968 267.529L176.959 262.76C176.959 264.6 178.185 266.44 180.627 267.838Z" fill="#F45C00"/>
<path d="M176.947 262.764C176.936 258.772 182.582 255.52 189.558 255.501C196.534 255.481 202.199 258.701 202.21 262.693C202.222 266.685 196.576 269.937 189.6 269.957C182.623 269.976 176.959 266.756 176.947 262.764Z" fill="#FFA200"/>
<path d="M164.042 267.284L164.109 291.118L189.533 305.715L189.467 281.872L164.042 267.284Z" fill="#FB7400"/>
<path d="M189.467 281.872L189.533 305.715L215.138 291.109L215.072 267.275L189.467 281.872Z" fill="#F45C00"/>
<path d="M164.042 267.284L189.467 281.872L215.072 267.275L189.638 252.688L164.042 267.284Z" fill="#FF8F00"/>
<path d="M176.731 262.225H202.06L202.336 267.209L196.006 273.724H183.346L177.006 267.209L176.731 262.225Z" fill="#F45C00"/>
<path d="M183.061 255.71H195.73L202.06 262.225L195.73 268.739H183.061L176.731 262.225L183.061 255.71Z" fill="#FF9C31"/>
<path d="M222.452 132.771L222.385 156.789L197.032 171.499L197.099 147.471L222.452 132.771Z" fill="#FB7400"/>
<path d="M197.099 147.471L197.032 171.498L171.499 156.779L171.565 132.761L197.099 147.471Z" fill="#F45C00"/>
<path d="M222.452 132.77L197.099 147.471L171.565 132.761L196.928 118.061L222.452 132.77Z" fill="#FF8F00"/>
<path d="M209.799 127.671H184.541L184.266 132.695L190.578 139.26H203.202L209.524 132.695L209.799 127.671Z" fill="#F45C00"/>
<path d="M203.487 121.106H190.853L184.541 127.672L190.853 134.237H203.487L209.799 127.672L203.487 121.106Z" fill="#FF9C31"/>
<path d="M237.364 206.274L237.319 222.472L220.005 232.393L220.05 216.188L237.364 206.274Z" fill="#FB7400"/>
<path d="M220.05 216.188L220.005 232.393L202.567 222.466L202.613 206.268L220.05 216.188Z" fill="#F45C00"/>
<path d="M237.364 206.274L220.05 216.188L202.613 206.268L219.934 196.354L237.364 206.274Z" fill="#FF8F00"/>
<path d="M228.723 202.835H211.474L211.286 206.223L215.597 210.651H224.218L228.535 206.223L228.723 202.835Z" fill="#F45C00"/>
<path d="M224.412 198.408H215.784L211.474 202.835L215.784 207.263H224.412L228.723 202.835L224.412 198.408Z" fill="#FF9C31"/>
<path d="M234.879 170.217L234.835 172.762L218.139 182.683L218.183 180.137L234.879 170.217Z" fill="#FB7400"/>
<path d="M218.183 180.137L218.139 182.683L201.325 172.762L201.375 156.564L218.183 180.137Z" fill="#F45C00"/>
<path d="M234.879 170.217L218.183 180.138L201.375 156.564L218.071 146.644L234.879 170.217Z" fill="#FF8F00"/>
<path d="M193.868 157.807L193.823 174.006L176.509 183.926L176.554 181.062L193.868 157.807Z" fill="#FB7400"/>
<path d="M176.554 181.062L176.509 183.926L159.072 174.006L159.123 171.141L176.554 181.062Z" fill="#F45C00"/>
<path d="M193.868 157.807L176.548 181.062L159.123 171.173L176.438 147.887L193.868 157.807Z" fill="#FF8F00"/>
<path opacity="0.18" d="M301.954 104.075C301.954 86.7485 301.965 73.7998 301.976 70.6936C302.076 51.7555 295.25 37.6142 282.36 26.3562C259.696 6.57926 229.576 0 201.941 0C146.694 0 101.906 28.8987 101.906 64.5469V309.76C101.906 309.76 101.917 309.76 101.928 309.76C101.928 327.086 101.917 340.035 101.906 343.141C101.807 362.079 108.633 376.22 121.533 387.478C144.198 407.255 174.318 413.834 201.952 413.834C257.2 413.834 301.987 384.936 301.987 349.287V104.075C301.976 104.075 301.965 104.075 301.954 104.075Z" fill="url(#paint7_linear)"/>
<g opacity="0.5">
<path opacity="0.5" d="M23.245 134.968L23.3653 134.953L7.87697 115.709L7.93712 95.0984L23.5004 93.7464L38.9436 112.945V112.555H39.0637L31.5976 103.256L23.5004 93.2056L7.63656 94.5726H7.53148L7.4563 115.739L11.6176 120.892L23.245 135.359V134.968Z" stroke="url(#paint8_linear)" stroke-miterlimit="10"/>
<path opacity="0.5" d="M54.9128 111.188L39.049 112.556L39.1392 112.691L39.0339 112.571H38.9289V112.961L38.8687 133.632H38.9439L39.0039 113.051L38.9439 133.632L39.2142 133.617L39.2894 133.707L39.3646 133.797L39.4245 113.096H39.4095H39.4245L54.9279 111.759L70.431 131.033L70.3708 151.644L54.8076 152.981L54.8226 153.011L54.8076 152.981L39.3646 133.797L39.2894 133.707L39.2142 133.617L38.9439 133.632H38.8988H38.8687V133.662H38.9439H38.8687V133.737L38.9439 133.827L38.8687 133.737V133.662L23.3505 134.969H23.2453V135.36L23.3656 135.51L23.2453 135.36L23.1853 156.121L39.0039 175.785L39.1091 175.92L54.9878 174.553H55.0931L55.153 153.492L70.6714 152.155L70.7765 152.14L70.8366 130.973L54.9128 111.188ZM39.2443 134.173L39.2292 134.143L39.2443 134.173ZM39.1091 175.365L23.6058 156.091L23.6659 135.51L23.3956 135.525L23.6659 135.48L39.2292 134.143L39.2443 134.173L54.7326 153.432L54.6724 174.043L39.1091 175.365Z" stroke="url(#paint9_linear)" stroke-miterlimit="10"/>
</g>
<g opacity="0.5">
<path opacity="0.5" d="M322.747 468.456L322.867 468.471L307.379 487.715L307.439 508.326L323.002 509.678L338.445 490.479V490.87H338.565L331.099 500.169L323.002 510.219L307.138 508.852H307.033L306.958 487.685L311.119 482.532L322.747 468.066V468.456Z" stroke="url(#paint10_linear)" stroke-miterlimit="10"/>
<path opacity="0.5" d="M354.415 492.237L338.551 490.87L338.641 490.735L338.536 490.855H338.431V490.464L338.37 469.793H338.446L338.506 490.374L338.446 469.793L338.716 469.808L338.791 469.718L338.866 469.628L338.926 490.329H338.911H338.926L354.43 491.666L369.933 472.392L369.873 451.781L354.309 450.444L354.324 450.414L354.309 450.444L338.866 469.628L338.791 469.718L338.716 469.808L338.446 469.793H338.4H338.37V469.763H338.446H338.37V469.688L338.446 469.598L338.37 469.688V469.763L322.852 468.456H322.747V468.066L322.867 467.915L322.747 468.066L322.687 447.304L338.506 427.64L338.611 427.505L354.49 428.872H354.595L354.655 449.933L370.173 451.27L370.278 451.285L370.338 472.452L354.415 492.237ZM338.746 469.252L338.731 469.282L338.746 469.252ZM338.611 428.061L323.108 447.335L323.168 467.915L322.897 467.9L323.168 467.945L338.731 469.282L338.746 469.252L354.234 449.994L354.174 429.383L338.611 428.061Z" stroke="url(#paint11_linear)" stroke-miterlimit="10"/>
</g>
<path d="M33.8922 405.041C33.7514 403.366 34.7833 401.664 36.9877 400.397L60.6664 386.722C64.8071 384.33 71.5878 384.33 75.7286 386.722L125.103 415.232C127.321 416.512 128.359 418.247 128.218 419.955C128.238 420.156 128.238 420.357 128.218 420.565C128.238 420.766 128.238 420.967 128.218 421.175C128.238 421.376 128.238 421.577 128.218 421.785C128.238 421.986 128.238 422.187 128.218 422.394C128.238 422.595 128.238 422.796 128.218 423.004C128.238 423.205 128.238 423.406 128.218 423.614C128.238 423.815 128.238 424.016 128.218 424.224C128.238 424.425 128.238 424.626 128.218 424.833C128.238 425.034 128.238 425.235 128.218 425.443C128.238 425.644 128.238 425.845 128.218 426.053C128.238 426.254 128.238 426.455 128.218 426.662C128.238 426.863 128.238 427.064 128.218 427.272C128.238 427.473 128.238 427.674 128.218 427.882C128.238 428.083 128.238 428.284 128.218 428.492C128.238 428.693 128.238 428.894 128.218 429.101C128.238 429.302 128.238 429.503 128.218 429.711C128.238 429.912 128.238 430.113 128.218 430.321C128.238 430.522 128.238 430.723 128.218 430.93C128.238 431.131 128.238 431.333 128.218 431.54C128.238 431.741 128.238 431.942 128.218 432.15C128.238 432.351 128.238 432.552 128.218 432.76C128.238 432.961 128.238 433.162 128.218 433.369C128.238 433.57 128.238 433.771 128.218 433.979C128.238 434.18 128.238 434.381 128.218 434.589C128.238 434.79 128.238 434.991 128.218 435.199C128.238 435.4 128.238 435.601 128.218 435.808C128.238 436.009 128.238 436.21 128.218 436.418C128.238 436.619 128.238 436.82 128.218 437.028C128.238 437.229 128.238 437.43 128.218 437.637C128.238 437.838 128.238 438.039 128.218 438.247C128.238 438.448 128.238 438.649 128.218 438.857C128.238 439.058 128.238 439.259 128.218 439.467C128.238 439.668 128.238 439.869 128.218 440.076C128.238 440.277 128.238 440.478 128.218 440.686C128.238 440.887 128.238 441.088 128.218 441.296C128.238 441.497 128.238 441.698 128.218 441.905C128.238 442.106 128.238 442.307 128.218 442.515C128.238 442.716 128.238 442.917 128.218 443.125C128.238 443.326 128.238 443.527 128.218 443.735C128.238 443.936 128.238 444.137 128.218 444.344C128.359 446.033 127.347 447.762 125.183 449.061L102.262 462.891C98.1677 465.356 91.4272 465.43 87.2798 463.038L36.981 434.066C34.7766 432.8 33.7447 431.091 33.8854 429.423C33.8653 429.222 33.8653 429.021 33.8854 428.813C33.8653 428.612 33.8653 428.411 33.8854 428.203C33.8653 428.002 33.8653 427.801 33.8854 427.594C33.8653 427.393 33.8653 427.192 33.8854 426.984C33.8653 426.783 33.8653 426.582 33.8854 426.374C33.8653 426.173 33.8653 425.972 33.8854 425.765C33.8653 425.564 33.8653 425.363 33.8854 425.155C33.8653 424.954 33.8653 424.753 33.8854 424.545C33.8653 424.344 33.8653 424.143 33.8854 423.935C33.8653 423.734 33.8653 423.533 33.8854 423.326C33.8653 423.125 33.8653 422.924 33.8854 422.716C33.8653 422.515 33.8653 422.314 33.8854 422.106C33.8653 421.905 33.8653 421.704 33.8854 421.497C33.8653 421.296 33.8653 421.095 33.8854 420.887C33.8653 420.686 33.8653 420.485 33.8854 420.277C33.8653 420.076 33.8653 419.875 33.8854 419.667C33.8653 419.466 33.8653 419.265 33.8854 419.058C33.8653 418.857 33.8653 418.656 33.8854 418.448C33.8653 418.247 33.8653 418.046 33.8854 417.838C33.8653 417.637 33.8653 417.436 33.8854 417.228C33.8653 417.027 33.8653 416.826 33.8854 416.619C33.8653 416.418 33.8653 416.217 33.8854 416.009C33.8653 415.808 33.8653 415.607 33.8854 415.399C33.8653 415.198 33.8653 414.997 33.8854 414.79C33.8653 414.589 33.8653 414.388 33.8854 414.18C33.8653 413.979 33.8653 413.778 33.8854 413.57C33.8653 413.369 33.8653 413.168 33.8854 412.96C33.8653 412.759 33.8653 412.558 33.8854 412.351C33.8653 412.15 33.8653 411.949 33.8854 411.741C33.8653 411.54 33.8653 411.339 33.8854 411.131C33.8653 410.93 33.8653 410.729 33.8854 410.521C33.8653 410.32 33.8653 410.119 33.8854 409.912C33.8653 409.711 33.8653 409.51 33.8854 409.302C33.8653 409.101 33.8653 408.9 33.8854 408.692C33.8653 408.491 33.8653 408.29 33.8854 408.083C33.8653 407.882 33.8653 407.681 33.8854 407.473C33.8653 407.272 33.8653 407.071 33.8854 406.863C33.8653 406.662 33.8653 406.461 33.8854 406.253C33.8653 406.052 33.8653 405.851 33.8854 405.644C33.872 405.443 33.8721 405.242 33.8922 405.041Z" fill="url(#paint12_linear)"/>
<path d="M56.231 381.864C61.2696 378.95 69.5243 378.95 74.5629 381.864L138.457 418.287V423.5C138.457 424.464 137.954 425.356 137.13 425.851L106.878 444.163C101.893 447.172 93.6854 447.259 88.6401 444.351L26.0329 408.303C24.5522 407.452 23.641 405.871 23.641 404.163V400.303L56.231 381.864Z" fill="#FE9D61"/>
<path d="M56.2308 378.682C61.2694 375.767 69.5241 375.767 74.5627 378.682L134.671 413.389C139.709 416.304 139.756 421.142 134.771 424.15L106.871 440.981C101.886 443.989 93.6785 444.077 88.6332 441.169L27.3996 405.905C22.3543 402.997 22.3476 398.24 27.3929 395.332L56.2308 378.682Z" fill="#DD5F13"/>
<g opacity="0.48">
<g opacity="0.48">
<path opacity="0.48" d="M266.892 131.392L266.868 135.502L257.414 129.991L257.438 125.881L266.892 131.392Z" fill="#EC6B1E"/>
</g>
<g opacity="0.48">
<path opacity="0.48" d="M282.855 161.037L282.807 165.17L257.248 150.277L257.296 146.144L282.855 161.037Z" fill="#EC6B1E"/>
</g>
<g opacity="0.48">
<path opacity="0.48" d="M286.916 156.619L286.892 160.752L278.816 156.048L278.839 151.939L286.916 156.619Z" fill="#EC6B1E"/>
</g>
<g opacity="0.48">
<path opacity="0.48" d="M288.175 150.561L288.127 154.694L257.366 136.736L257.39 132.627L288.175 150.561Z" fill="#EC6B1E"/>
</g>
<g opacity="0.48">
<path opacity="0.48" d="M287.058 136.357L287.034 140.466L278.982 135.787L279.006 131.63L287.058 136.357Z" fill="#EC6B1E"/>
</g>
<g opacity="0.48">
<path opacity="0.48" d="M297.462 149.207V153.34L269.86 137.235L269.884 133.126L297.462 149.207Z" fill="#EC6B1E"/>
</g>
<g opacity="0.48">
<path opacity="0.48" d="M287.106 129.587L287.082 133.696L257.509 116.451L257.532 112.342L287.106 129.587Z" fill="#EC6B1E"/>
</g>
<g opacity="0.48">
<path opacity="0.48" d="M299.885 143.815L299.862 147.972L290.717 142.627L290.74 138.494L299.885 143.815Z" fill="#EC6B1E"/>
</g>
<g opacity="0.48">
<path opacity="0.48" d="M294.446 127.093L294.422 131.202L267.01 115.216L267.058 111.106L294.446 127.093Z" fill="#EC6B1E"/>
</g>
<g opacity="0.48">
<path opacity="0.48" d="M304.327 139.634L304.304 143.744L290.764 135.857L290.812 131.748L304.327 139.634Z" fill="#EC6B1E"/>
</g>
<g opacity="0.48">
<path opacity="0.48" d="M309.149 128.85L309.126 132.983L290.859 122.342L290.907 118.208L309.149 128.85Z" fill="#EC6B1E"/>
</g>
<g opacity="0.48">
<path opacity="0.48" d="M304.516 112.603L304.492 116.712L290.952 108.826L290.976 104.716L304.516 112.603Z" fill="#EC6B1E"/>
</g>
<g opacity="0.48">
<path opacity="0.48" d="M310.835 123.055L310.811 127.188L290.906 115.596L290.93 111.463L310.835 123.055Z" fill="#EC6B1E"/>
</g>
<g opacity="0.48">
<path opacity="0.48" d="M309.292 108.588L309.268 112.721L291.025 102.08L291.049 97.9468L309.292 108.588Z" fill="#EC6B1E"/>
</g>
<g opacity="0.48">
<g opacity="0.48">
<path opacity="0.48" d="M264.777 109.776L264.753 113.886L257.556 109.705L257.603 105.596L264.777 109.776Z" fill="#EC6B1E"/>
</g>
<g opacity="0.48">
<path opacity="0.48" d="M276.56 109.847L276.512 113.98L257.604 102.959L257.652 98.8018L276.56 109.847Z" fill="#EC6B1E"/>
</g>
<g opacity="0.48">
<path opacity="0.48" d="M283.235 106.973L283.187 111.107L257.652 96.1894L257.676 92.0562L283.235 106.973Z" fill="#EC6B1E"/>
</g>
</g>
<g opacity="0.48">
<path opacity="0.48" d="M287.32 102.555L287.272 106.665L279.22 101.962L279.244 97.8521L287.32 102.555Z" fill="#EC6B1E"/>
</g>
<g opacity="0.48">
<path opacity="0.48" d="M276.796 76.046L276.772 80.1791L257.864 69.1337L257.888 65.0244L276.796 76.046Z" fill="#EC6B1E"/>
</g>
<g opacity="0.48">
<path opacity="0.48" d="M288.555 96.4738L288.531 100.631L257.77 82.6492V78.5161L288.555 96.4738Z" fill="#EC6B1E"/>
</g>
<g opacity="0.48">
<path opacity="0.48" d="M265.158 55.6896L265.134 59.8229L257.937 55.6422L257.984 51.4854L265.158 55.6896Z" fill="#EC6B1E"/>
</g>
<g opacity="0.48">
<path opacity="0.48" d="M287.463 82.2696L287.439 86.4028L279.363 81.6995L279.41 77.5664L287.463 82.2696Z" fill="#EC6B1E"/>
</g>
<g opacity="0.48">
<path opacity="0.48" d="M297.867 95.1203L297.843 99.2534L270.242 83.1722L270.289 79.0391L297.867 95.1203Z" fill="#EC6B1E"/>
</g>
<g opacity="0.48">
<path opacity="0.48" d="M287.509 75.4995L287.486 79.6327L257.912 62.3875L257.936 58.2544L287.509 75.4995Z" fill="#EC6B1E"/>
</g>
<g opacity="0.48">
<path opacity="0.48" d="M276.939 55.7843L276.915 59.8698L258.007 48.8481L258.031 44.7388L276.939 55.7843Z" fill="#EC6B1E"/>
</g>
<g opacity="0.48">
<path opacity="0.48" d="M300.265 89.7519L300.241 93.8613L291.12 88.5405L291.143 84.4312L300.265 89.7519Z" fill="#EC6B1E"/>
</g>
<g opacity="0.48">
<path opacity="0.48" d="M294.85 72.9825L294.827 77.1394L267.391 61.1533L267.439 57.02L294.85 72.9825Z" fill="#EC6B1E"/>
</g>
<g opacity="0.48">
<path opacity="0.48" d="M304.732 85.5471L304.685 89.6802L291.145 81.7941L291.192 77.6372L304.732 85.5471Z" fill="#EC6B1E"/>
</g>
<g opacity="0.48">
<path opacity="0.48" d="M309.554 74.7874L309.506 78.8968L291.264 68.2552L291.287 64.1221L309.554 74.7874Z" fill="#EC6B1E"/>
</g>
<g opacity="0.48">
<path opacity="0.48" d="M287.604 62.0072L287.58 66.1166L279.528 61.4134V57.2803L287.604 62.0072Z" fill="#EC6B1E"/>
</g>
<g opacity="0.48">
<g opacity="0.48">
<path opacity="0.48" d="M304.138 166.667L304.091 170.801L290.551 162.914L290.599 158.781L304.138 166.667Z" fill="#EC6B1E"/>
</g>
<g opacity="0.48">
<path opacity="0.48" d="M310.432 177.142L310.408 181.275L290.502 169.659L290.55 165.55L310.432 177.142Z" fill="#EC6B1E"/>
</g>
<g opacity="0.48">
<path opacity="0.48" d="M308.912 162.652L308.864 166.785L290.622 156.144L290.645 152.011L308.912 162.652Z" fill="#EC6B1E"/>
</g>
</g>
<g opacity="0.48">
<path opacity="0.48" d="M268.363 172.984L268.339 177.093L258.885 171.606L258.933 167.473L268.363 172.984Z" fill="#EC6B1E"/>
</g>
<g opacity="0.48">
<path opacity="0.48" d="M284.326 202.653L284.303 206.763L258.744 191.869L258.791 187.736L284.326 202.653Z" fill="#EC6B1E"/>
</g>
<g opacity="0.48">
<path opacity="0.48" d="M288.389 198.235V202.368L280.313 197.665L280.336 193.532L288.389 198.235Z" fill="#EC6B1E"/>
</g>
<g opacity="0.48">
<path opacity="0.48" d="M289.648 192.177L289.625 196.311L258.84 178.329L258.887 174.22L289.648 192.177Z" fill="#EC6B1E"/>
</g>
<g opacity="0.48">
<path opacity="0.48" d="M288.555 177.949L288.507 182.082L280.455 177.402L280.502 173.246L288.555 177.949Z" fill="#EC6B1E"/>
</g>
<g opacity="0.48">
<path opacity="0.48" d="M298.959 190.824L298.935 194.933L271.357 178.852L271.381 174.719L298.959 190.824Z" fill="#EC6B1E"/>
</g>
<g opacity="0.48">
<path opacity="0.48" d="M288.602 171.203L288.554 175.312L259.005 158.067L259.029 153.934L288.602 171.203Z" fill="#EC6B1E"/>
</g>
<g opacity="0.48">
<path opacity="0.48" d="M301.381 185.431L301.334 189.565L292.189 184.22L292.236 180.087L301.381 185.431Z" fill="#EC6B1E"/>
</g>
<g opacity="0.48">
<path opacity="0.48" d="M305.824 181.227L305.8 185.36L292.261 177.45L292.284 173.34L305.824 181.227Z" fill="#EC6B1E"/>
</g>
<g opacity="0.48">
<g opacity="0.48">
<path opacity="0.48" d="M305.635 208.283L305.587 212.416L292.048 204.506L292.095 200.373L305.635 208.283Z" fill="#EC6B1E"/>
</g>
<g opacity="0.48">
<path opacity="0.48" d="M311.929 218.757L311.881 222.866L292 211.274L292.047 207.165L311.929 218.757Z" fill="#EC6B1E"/>
</g>
<g opacity="0.48">
<path opacity="0.48" d="M310.386 204.268L310.362 208.401L292.096 197.735L292.143 193.626L310.386 204.268Z" fill="#EC6B1E"/>
</g>
</g>
<g opacity="0.48">
<path opacity="0.48" d="M287.224 116.07L287.176 120.203L279.124 115.5L279.148 111.343L287.224 116.07Z" fill="#EC6B1E"/>
</g>
</g>
<g opacity="0.48">
<g opacity="0.48">
<path opacity="0.48" d="M84.967 218.037L84.9817 215.5L90.8174 218.902L90.8027 221.438L84.967 218.037Z" fill="#AE4B0F"/>
</g>
<g opacity="0.48">
<path opacity="0.48" d="M75.1139 199.724L75.1433 197.187L90.9055 206.38L90.8908 208.932L75.1139 199.724Z" fill="#AE4B0F"/>
</g>
<g opacity="0.48">
<path opacity="0.48" d="M72.6058 202.465L72.6204 199.899L77.6057 202.803L77.5764 205.354L72.6058 202.465Z" fill="#AE4B0F"/>
</g>
<g opacity="0.48">
<path opacity="0.48" d="M71.8291 206.19L71.8438 203.653L90.8464 214.738L90.8171 217.275L71.8291 206.19Z" fill="#AE4B0F"/>
</g>
<g opacity="0.48">
<path opacity="0.48" d="M72.5038 214.973L72.533 212.421L77.5037 215.325L77.489 217.876L72.5038 214.973Z" fill="#AE4B0F"/>
</g>
<g opacity="0.48">
<path opacity="0.48" d="M66.0962 207.026V204.49L83.134 214.416L83.1194 216.968L66.0962 207.026Z" fill="#AE4B0F"/>
</g>
<g opacity="0.48">
<path opacity="0.48" d="M72.4739 219.152L72.5033 216.601L90.7581 227.246L90.7435 229.797L72.4739 219.152Z" fill="#AE4B0F"/>
</g>
<g opacity="0.48">
<path opacity="0.48" d="M64.6 210.354L64.6147 207.802L70.2598 211.101L70.2451 213.653L64.6 210.354Z" fill="#AE4B0F"/>
</g>
<g opacity="0.48">
<path opacity="0.48" d="M67.9583 220.691L67.973 218.154L84.8789 228.022L84.8642 230.559L67.9583 220.691Z" fill="#AE4B0F"/>
</g>
<g opacity="0.48">
<path opacity="0.48" d="M61.8592 212.949L61.8739 210.398L70.2314 215.281L70.2022 217.817L61.8592 212.949Z" fill="#AE4B0F"/>
</g>
<g opacity="0.48">
<path opacity="0.48" d="M58.8822 219.591L58.8969 217.04L70.1577 223.624L70.143 226.175L58.8822 219.591Z" fill="#AE4B0F"/>
</g>
<g opacity="0.48">
<path opacity="0.48" d="M61.727 229.635L61.7564 227.084L70.114 231.967L70.0847 234.503L61.727 229.635Z" fill="#AE4B0F"/>
</g>
<g opacity="0.48">
<path opacity="0.48" d="M57.8413 223.17L57.8559 220.618L70.1431 227.788L70.1138 230.339L57.8413 223.17Z" fill="#AE4B0F"/>
</g>
<g opacity="0.48">
<path opacity="0.48" d="M58.7792 232.113L58.8085 229.562L70.0693 236.131L70.0547 238.682L58.7792 232.113Z" fill="#AE4B0F"/>
</g>
<g opacity="0.48">
<g opacity="0.48">
<path opacity="0.48" d="M86.2708 231.382L86.2855 228.831L90.7283 231.426L90.6989 233.963L86.2708 231.382Z" fill="#AE4B0F"/>
</g>
<g opacity="0.48">
<path opacity="0.48" d="M78.9917 231.336L79.0064 228.785L90.6777 235.588L90.6631 238.139L78.9917 231.336Z" fill="#AE4B0F"/>
</g>
<g opacity="0.48">
<path opacity="0.48" d="M74.8779 233.11L74.8926 230.559L90.6694 239.753L90.6402 242.304L74.8779 233.11Z" fill="#AE4B0F"/>
</g>
</g>
<g opacity="0.48">
<path opacity="0.48" d="M72.357 235.837L72.3716 233.286L77.3569 236.189L77.3423 238.726L72.357 235.837Z" fill="#AE4B0F"/>
</g>
<g opacity="0.48">
<path opacity="0.48" d="M78.853 252.186L78.8677 249.649L90.5391 256.467L90.5244 259.004L78.853 252.186Z" fill="#AE4B0F"/>
</g>
<g opacity="0.48">
<path opacity="0.48" d="M71.5804 239.576L71.6097 237.024L90.5977 248.109L90.583 250.661L71.5804 239.576Z" fill="#AE4B0F"/>
</g>
<g opacity="0.48">
<path opacity="0.48" d="M86.0369 264.766V262.215L90.4797 264.795L90.4504 267.361L86.0369 264.766Z" fill="#AE4B0F"/>
</g>
<g opacity="0.48">
<path opacity="0.48" d="M72.2686 248.359L72.2833 245.808L77.2539 248.711L77.2392 251.247L72.2686 248.359Z" fill="#AE4B0F"/>
</g>
<g opacity="0.48">
<path opacity="0.48" d="M65.8467 240.413L65.8613 237.861L82.8845 247.803L82.8699 250.354L65.8467 240.413Z" fill="#AE4B0F"/>
</g>
<g opacity="0.48">
<path opacity="0.48" d="M72.2401 252.538L72.2546 249.987L90.5095 260.632L90.4948 263.183L72.2401 252.538Z" fill="#AE4B0F"/>
</g>
<g opacity="0.48">
<path opacity="0.48" d="M78.7648 264.708L78.7795 262.172L90.4509 268.975L90.4216 271.527L78.7648 264.708Z" fill="#AE4B0F"/>
</g>
<g opacity="0.48">
<path opacity="0.48" d="M64.3513 243.741L64.3805 241.189L70.011 244.489L69.9963 247.025L64.3513 243.741Z" fill="#AE4B0F"/>
</g>
<g opacity="0.48">
<path opacity="0.48" d="M67.7083 254.078L67.723 251.526L84.6436 261.394L84.6289 263.946L67.7083 254.078Z" fill="#AE4B0F"/>
</g>
<g opacity="0.48">
<path opacity="0.48" d="M61.6094 246.321L61.624 243.784L69.9817 248.652L69.967 251.203L61.6094 246.321Z" fill="#AE4B0F"/>
</g>
<g opacity="0.48">
<path opacity="0.48" d="M58.6327 252.978L58.6474 250.427L69.9229 256.996L69.8935 259.547L58.6327 252.978Z" fill="#AE4B0F"/>
</g>
<g opacity="0.48">
<path opacity="0.48" d="M72.1805 260.866V258.33L77.1658 261.233L77.1511 263.769L72.1805 260.866Z" fill="#AE4B0F"/>
</g>
<g opacity="0.48">
<g opacity="0.48">
<path opacity="0.48" d="M61.9759 196.263L61.9905 193.712L70.3481 198.565L70.3189 201.131L61.9759 196.263Z" fill="#AE4B0F"/>
</g>
<g opacity="0.48">
<path opacity="0.48" d="M58.0756 189.797L58.1049 187.246L70.3774 194.416L70.3628 196.953L58.0756 189.797Z" fill="#AE4B0F"/>
</g>
<g opacity="0.48">
<path opacity="0.48" d="M59.0282 198.727L59.0429 196.176L70.3184 202.759L70.289 205.296L59.0282 198.727Z" fill="#AE4B0F"/>
</g>
</g>
<g opacity="0.48">
<path opacity="0.48" d="M84.0432 192.363L84.0725 189.812L89.9082 193.214L89.8788 195.765L84.0432 192.363Z" fill="#AE4B0F"/>
</g>
<g opacity="0.48">
<path opacity="0.48" d="M74.2045 174.049L74.2192 171.498L89.9961 180.691L89.9667 183.243L74.2045 174.049Z" fill="#AE4B0F"/>
</g>
<g opacity="0.48">
<path opacity="0.48" d="M71.6822 176.777L71.6968 174.211L76.6821 177.129L76.6528 179.665L71.6822 176.777Z" fill="#AE4B0F"/>
</g>
<g opacity="0.48">
<path opacity="0.48" d="M70.9197 180.516L70.9344 177.965L89.9224 189.05L89.9077 191.586L70.9197 180.516Z" fill="#AE4B0F"/>
</g>
<g opacity="0.48">
<path opacity="0.48" d="M71.5944 189.299L71.6089 186.748L76.5942 189.636L76.5649 192.187L71.5944 189.299Z" fill="#AE4B0F"/>
</g>
<g opacity="0.48">
<path opacity="0.48" d="M65.1726 181.352L65.1873 178.8L82.2104 188.741L82.1958 191.278L65.1726 181.352Z" fill="#AE4B0F"/>
</g>
<g opacity="0.48">
<path opacity="0.48" d="M71.5661 193.463L71.5808 190.926L89.8357 201.571L89.821 204.108L71.5661 193.463Z" fill="#AE4B0F"/>
</g>
<g opacity="0.48">
<path opacity="0.48" d="M63.6769 184.68L63.6916 182.114L69.3513 185.413L69.322 187.965L63.6769 184.68Z" fill="#AE4B0F"/>
</g>
<g opacity="0.48">
<path opacity="0.48" d="M60.9348 187.261L60.9495 184.724L69.3071 189.592L69.2925 192.129L60.9348 187.261Z" fill="#AE4B0F"/>
</g>
<g opacity="0.48">
<g opacity="0.48">
<path opacity="0.48" d="M61.0528 170.574L61.0674 168.022L69.425 172.89L69.4104 175.442L61.0528 170.574Z" fill="#AE4B0F"/>
</g>
<g opacity="0.48">
<path opacity="0.48" d="M57.1666 164.108L57.1813 161.557L69.4539 168.727L69.4392 171.264L57.1666 164.108Z" fill="#AE4B0F"/>
</g>
<g opacity="0.48">
<path opacity="0.48" d="M58.1195 173.053V170.501L69.395 177.07L69.3803 179.622L58.1195 173.053Z" fill="#AE4B0F"/>
</g>
</g>
<g opacity="0.48">
<path opacity="0.48" d="M72.4159 227.494L72.4452 224.943L77.4158 227.846L77.3864 230.397L72.4159 227.494Z" fill="#AE4B0F"/>
</g>
</g>
<defs>
<radialGradient id="paint0_radial" cx="0" cy="0" r="1" gradientUnits="userSpaceOnUse" gradientTransform="translate(197.057 372.246) scale(160.805)">
<stop offset="0.3638" stop-color="#A3430C"/>
<stop offset="0.5878" stop-color="#FB7400"/>
<stop offset="1" stop-color="#C8520E"/>
</radialGradient>
<linearGradient id="paint1_linear" x1="151.661" y1="380.775" x2="242.146" y2="380.775" gradientUnits="userSpaceOnUse">
<stop stop-color="#C65511"/>
<stop offset="1" stop-color="#AE4B0F"/>
</linearGradient>
<linearGradient id="paint2_linear" x1="151.613" y1="365.158" x2="242.107" y2="365.158" gradientUnits="userSpaceOnUse">
<stop stop-color="#FB7400"/>
<stop offset="1" stop-color="#D06103"/>
</linearGradient>
<radialGradient id="paint3_radial" cx="0" cy="0" r="1" gradientUnits="userSpaceOnUse" gradientTransform="translate(196.906 365.147) scale(36.9453)">
<stop stop-color="#6CE1F5"/>
<stop offset="1" stop-color="#6CE1F5" stop-opacity="0"/>
</radialGradient>
<linearGradient id="paint4_linear" x1="151.279" y1="367.472" x2="241.87" y2="367.359" gradientUnits="userSpaceOnUse">
<stop stop-color="#AE4B0F"/>
<stop offset="0.0001" stop-color="#C65511"/>
<stop offset="1" stop-color="#AE4B0F"/>
</linearGradient>
<linearGradient id="paint5_linear" x1="151.66" y1="352.97" x2="242.154" y2="352.97" gradientUnits="userSpaceOnUse">
<stop stop-color="#FF8F00"/>
<stop offset="1" stop-color="#E26700"/>
</linearGradient>
<linearGradient id="paint6_linear" x1="198.218" y1="162.8" x2="198.218" y2="365.367" gradientUnits="userSpaceOnUse">
<stop offset="0.65625" stop-color="#FB7400"/>
<stop offset="0.760417" stop-color="#FB7400"/>
<stop offset="0.984375" stop-color="#FB7400" stop-opacity="0"/>
</linearGradient>
<linearGradient id="paint7_linear" x1="201.941" y1="413.825" x2="201.941" y2="-0.00352726" gradientUnits="userSpaceOnUse">
<stop stop-color="#FF9758"/>
<stop offset="0.90625" stop-color="#EC6B1E" stop-opacity="0"/>
</linearGradient>
<linearGradient id="paint8_linear" x1="23.2603" y1="135.867" x2="23.2603" y2="92.6952" gradientUnits="userSpaceOnUse">
<stop stop-color="#E26700"/>
<stop offset="0.151042" stop-color="#FB7400"/>
<stop offset="0.3246" stop-color="#A9611E" stop-opacity="0.83"/>
<stop offset="0.520833" stop-color="#B86419" stop-opacity="0.980141"/>
<stop offset="0.661458" stop-color="#FB7400" stop-opacity="0.89"/>
<stop offset="1" stop-color="#FB7400"/>
</linearGradient>
<linearGradient id="paint9_linear" x1="47.0114" y1="176.701" x2="47.0114" y2="110.405" gradientUnits="userSpaceOnUse">
<stop stop-color="#E26700"/>
<stop offset="0.151042" stop-color="#FB7400"/>
<stop offset="0.3246" stop-color="#A9611E" stop-opacity="0.83"/>
<stop offset="0.520833" stop-color="#B86419" stop-opacity="0.980141"/>
<stop offset="0.661458" stop-color="#FB7400" stop-opacity="0.89"/>
<stop offset="1" stop-color="#FB7400"/>
</linearGradient>
<linearGradient id="paint10_linear" x1="322.762" y1="467.557" x2="322.762" y2="510.729" gradientUnits="userSpaceOnUse">
<stop stop-color="#E26700"/>
<stop offset="0.151042" stop-color="#FB7400"/>
<stop offset="0.3246" stop-color="#A9611E" stop-opacity="0.83"/>
<stop offset="0.520833" stop-color="#B86419" stop-opacity="0.980141"/>
<stop offset="0.661458" stop-color="#FB7400" stop-opacity="0.89"/>
<stop offset="1" stop-color="#FB7400"/>
</linearGradient>
<linearGradient id="paint11_linear" x1="346.513" y1="426.724" x2="346.513" y2="493.021" gradientUnits="userSpaceOnUse">
<stop stop-color="#E26700"/>
<stop offset="0.151042" stop-color="#FB7400"/>
<stop offset="0.3246" stop-color="#A9611E" stop-opacity="0.83"/>
<stop offset="0.520833" stop-color="#B86419" stop-opacity="0.980141"/>
<stop offset="0.661458" stop-color="#FB7400" stop-opacity="0.89"/>
<stop offset="1" stop-color="#FB7400"/>
</linearGradient>
<linearGradient id="paint12_linear" x1="81.054" y1="464.659" x2="81.054" y2="384.929" gradientUnits="userSpaceOnUse">
<stop offset="0.11919" stop-color="#EE7B35" stop-opacity="0"/>
<stop offset="1" stop-color="#EC6B1E"/>
</linearGradient>
</defs>
</svg>
